<?xml version="1.0" encoding="utf-8"?>
<!-- Generator: Adobe Illustrator 24.1.2, SVG Export Plug-In . SVG Version: 6.00 Build 0)  -->
<svg version="1.1" id="Слой_1" xmlns="http://www.w3.org/2000/svg" xmlns:xlink="http://www.w3.org/1999/xlink" x="0px" y="0px"
	 viewBox="0 0 612.8 428.2" style="enable-background:new 0 0 612.8 428.2;" xml:space="preserve">
<style type="text/css">
	.st0{display:none;}
	.st1{display:inline;}
	.st2{fill:#F7E5BC;}
	.st3{fill:#D6569B;}
	.st4{fill:#E374B0;}
	.st5{fill:#E05FA3;}
	.st6{fill:#1F3A70;}
	.st7{fill:#F06EA8;}
	.st8{fill:#1B1926;}
	.st9{fill:#751B40;}
	.st10{fill:#9C2455;}
	.st11{fill:#36393F;}
	.st12{fill:#313339;stroke:#ABADB3;stroke-width:0.75;stroke-miterlimit:10;}
	.st13{fill:#ADBBBE;}
	.st14{font-family:'SegoeUI-Bold';}
	.st15{font-size:8.9694px;}
	.st16{fill:#D3D3D3;}
	.st17{font-size:9.4486px;}
	.st18{font-size:11.2358px;}
	.st19{font-size:11.8361px;}
	.st20{fill:#18191C;}
	.st21{fill:#747F8D;}
	.st22{fill:url(#SVGID_1_);}
	.st23{fill:#677CC6;}
	.st24{fill:#6C82CF;}
	.st25{fill:#7289DA;}
	.st26{fill:#43B581;stroke:#80CFAA;stroke-width:0.5;stroke-miterlimit:10;}
	.st27{fill:#FFFFFF;}
	.st28{font-size:9.9729px;}
	.st29{font-family:'SegoeUI-Light';}
	.st30{font-size:9.2824px;}
	.st31{font-size:7.9737px;}
	.st32{font-size:11.965px;}
	.st33{fill:#C4CCF0;}
	.st34{font-size:8.6946px;}
	.st35{fill:#7189DA;}
	.st36{fill:#404348;}
	.st37{fill:#3B3D43;}
</style>
<g id="Слой_2_1_" class="st0">
	<g class="st1">
		<path class="st2" d="M392.7,203.7c0,35.5-11.6,68.2-31.2,94.6c-2.2,3-4.5,5.8-6.8,8.6c-4.7,5.5-9.7,10.6-15,15.4
			c-0.5,0.5-1,0.9-1.5,1.3c-28,24.4-64.5,39.2-104.5,39.2c-21.3,0-41.7-4.2-60.3-11.8c-16.2-6.7-31.1-15.9-44.1-27.2
			c-33.5-29.2-54.7-72.1-54.7-120c0-60.2,33.5-112.6,82.8-139.6c0.7-0.4,1.4-0.8,2.1-1.1c0.2-0.1,0.3-0.2,0.5-0.3
			c22-11.5,47.1-18.1,73.7-18.1c10.6,0,20.9,1,30.9,3c0.3,0.1,0.7,0.1,1.1,0.2h0.1c8.1,1.7,16,4,23.7,6.8l0,0
			c0.3,0.1,0.5,0.2,0.8,0.3c1,0.4,2,0.8,3,1.2c1.4,0.6,2.8,1.2,4.3,1.8C353.5,82.4,392.7,138.5,392.7,203.7z"/>
		<path class="st2" d="M322.6,279.1c32.5,5.4,35.5,12.2,44.2,29.2l-34.9-3.9L322.6,279.1z"/>
		<path class="st3" d="M157.3,64c8.9,36.3,17.8,72.6,26.6,108.8c19.3-4,38.6-8,57.9-12c-11.1-38-22.2-76.1-33.2-114.1
			c-7.8,1.3-16.9,3.4-26.8,6.7C172.3,56.7,164.1,60.4,157.3,64z"/>
		<path class="st4" d="M201.8,141.7l22.9-0.9l-24.3-79.5c-0.3-1.1-0.9-2.2-1.7-3.1s-1.7-1.7-2.8-2.2s-2.2-0.8-3.4-0.9
			c-1.2-0.1-2.4,0.1-3.5,0.5c-2,0.7-3.6,2.2-4.5,4.1c-1,1.9-1.2,4-0.7,6L201.8,141.7z"/>
		<path class="st3" d="M315.4,67.3c-8.2,34.9-16.3,69.8-24.5,104.7c-19.4-3.7-38.7-7.5-58.1-11.2c10.6-37.7,21.1-75.5,31.7-113.2
			c9.6,2.3,21.4,5.6,28.4,8.5L315.4,67.3z"/>
		<path class="st4" d="M281.6,141.3l-22.7-0.8l23.4-79.8c0.3-1.1,0.9-2.2,1.7-3.1s1.7-1.6,2.8-2.2c1.1-0.5,2.2-0.8,3.4-0.9
			c1.2,0,2.4,0.2,3.5,0.6c2,0.7,3.6,2.1,4.6,4c1,1.8,1.3,4,0.8,6L281.6,141.3z"/>
		<path class="st5" d="M129.2,323.7c13,11.3,27.9,20.6,44.1,27.2c18.6,7.6,39,11.8,60.3,11.8c40,0,76.6-14.8,104.5-39.2
			c0.5-0.4,1-0.8,1.5-1.3"/>
		<path class="st2" d="M339.6,322.3c-0.5,0.5-1,0.9-1.5,1.3c-28,24.4-64.5,39.2-104.5,39.2c-21.3,0-41.7-4.2-60.3-11.8
			c-16.2-6.7-31.1-15.9-44.1-27.2c3.4-4.4,7.7-8.9,13.1-13.7c5.8-5,7.3-7.1,13-12.4c0.2-0.2,0.4-0.3,0.6-0.5l0.6-0.5l1.3-1.2l0.9-1
			l1.3-0.9l5.8-0.9l142.5-22.6l11.1,18.6l0.8,1.3l17.9,29.8L339.6,322.3z"/>
		<path class="st6" d="M338.1,323.6c-28,24.4-64.5,39.2-104.5,39.2c-21.3,0-41.7-4.2-60.3-11.8c-3.1-21.4-11.9-35.9-31-40.9
			c4.1-4.1,8.3-8.2,13-12.4c0.2-0.2,0.4-0.3,0.6-0.5l0.6-0.5l1.3-1.2l2.2-1.9l5.8-0.9l142.5-22.6l0,0c8.6,3.1,15.1,5.6,21.4,10.3
			c2.3,1.7,4.5,3.6,6.8,6v0.1c0,0.5,0.1,1,0.1,1.5c0.5,5.7,0.8,11.4,1,17.1c0.2,5,0.3,9.9,0.4,14.8
			C338.1,321.1,338.1,322.3,338.1,323.6z"/>
		<path class="st7" d="M322.8,207.6l-172.2,6.9c-22.7,0.9-40.3,20-39.4,42.7v0.1c0.9,22.7,20,40.3,42.7,39.4l172.2-6.9
			c22.7-0.9,40.3-20,39.4-42.7V247C364.5,224.4,345.4,206.7,322.8,207.6z"/>
		<path class="st7" d="M313.8,131.3l-167.3,7c-23.9,1-42.5,21.2-41.5,45.2l0.1,1.4c1,23.9,21.2,42.5,45.2,41.5l167.3-7
			c23.9-1,42.5-21.2,41.5-45.2l-0.1-1.4C358,148.9,337.7,130.3,313.8,131.3z"/>
		<path class="st5" d="M325.5,288.4c22.1-0.9,40.2-18.8,40.2-40.9c0.1-8-2.2-15.9-6.6-22.6c-4.4-6.7-10.6-12-18-15.2
			c5.6-4.2,10-9.7,13-16.1c3-6.3,4.4-13.3,4.1-20.2V172c-0.2-5.7-1.6-11.3-4-16.5c-2.4-5.2-5.8-9.8-10-13.7
			c-4.2-3.8-9.1-6.8-14.5-8.8c-5.4-1.9-11.1-2.8-16.8-2.6l-149.3,6.3c-13.4,25.7-11.5,53.3-1.6,73.2c1.4,3,2.3,6.3,2.4,9.6
			c0.1,3.3-0.4,6.7-1.6,9.8c-14.4,38.2,4.6,65.8,4.6,65.8L325.5,288.4z"/>
		<path class="st8" d="M205,211c3.8-2.5,4-8.9,0.5-14.3c-3.5-5.4-9.5-7.8-13.3-5.3s-4,8.9-0.5,14.3C195.2,211.2,201.2,213.5,205,211
			z"/>
		<path class="st8" d="M279.7,199.3c1.6-5.9-0.3-11.5-4.3-12.7c-4-1.1-8.6,2.7-10.3,8.6c-1.6,5.9,0.3,11.5,4.3,12.7
			C273.5,209,278.1,205.1,279.7,199.3z"/>
		<path class="st9" d="M221.5,230c10.4,17.7,25.7,21.8,36-1.1c0.1-0.2,0.2-0.4,0.2-0.7c0-0.2-0.1-0.5-0.2-0.7
			c-0.1-0.2-0.3-0.4-0.5-0.5c-0.2-0.1-0.5-0.1-0.7-0.1l-33.6,0.9c-0.2,0-0.4,0.1-0.6,0.2c-0.2,0.1-0.3,0.3-0.5,0.5
			c-0.1,0.2-0.2,0.4-0.2,0.7C221.4,229.6,221.4,229.8,221.5,230z"/>
		<path class="st10" d="M242.5,227.5l-19.9,0.5c-0.2,0-0.4,0.1-0.6,0.2c-0.2,0.1-0.3,0.3-0.5,0.5c-0.1,0.2-0.2,0.4-0.2,0.7
			c0,0.2,0,0.5,0.2,0.7c9,15.1,21.5,20.4,31.4,7.1C250.4,233,246.8,229.6,242.5,227.5z"/>
	</g>
</g>
<g id="Слой_3">
	<g>
		<path class="st11" d="M271.7,428.2h-226c-4.1,0-7.4-3.3-7.4-7.4V7.4c0-4.1,3.3-7.4,7.4-7.4h226c4.1,0,7.4,3.3,7.4,7.4v413.4
			C279,424.9,275.7,428.2,271.7,428.2z"/>
		<path class="st11" d="M93,174.8H7.4c-4.1,0-7.4-3.3-7.4-7.4V82c0-4.1,3.3-7.4,7.4-7.4h85.5c4.1,0,7.4,3.3,7.4,7.4v85.5
			C100.3,171.5,97,174.8,93,174.8z"/>
		<path class="st12" d="M184.2,55.7H52.1c-1,0-1.9-0.8-1.9-1.9V33c0-1,0.8-1.9,1.9-1.9h132.1c1,0,1.9,0.8,1.9,1.9v20.9
			C186,54.9,185.2,55.7,184.2,55.7z"/>
		<text transform="matrix(0.8668 0 0 1 56.7805 26.8178)" class="st13 st14 st15">GAME</text>
		<text transform="matrix(0.8881 0 0 1 56.6018 46.3978)" class="st16 st14 st17">Peppe</text>
		<path class="st12" d="M184.2,143.7H17.8c-1,0-1.9-0.8-1.9-1.9v-27.1c0-1,0.8-1.9,1.9-1.9h166.4c1,0,1.9,0.8,1.9,1.9v27.1
			C186,142.9,185.2,143.7,184.2,143.7z"/>
		<text transform="matrix(0.8668 0 0 1 24.1198 107.5082)" class="st13 st14 st18">DETAILS</text>
		<text transform="matrix(0.8881 0 0 1 23.8952 132.0375)" class="st16 st14 st19">Just chilin</text>
		<path class="st12" d="M184.2,224.8H52.1c-1,0-1.9-0.8-1.9-1.9V202c0-1,0.8-1.9,1.9-1.9h132.1c1,0,1.9,0.8,1.9,1.9v20.9
			C186,223.9,185.2,224.8,184.2,224.8z"/>
		<text transform="matrix(0.8668 0 0 1 56.7805 195.8534)" class="st13 st14 st15">IMAGE LARGE KEY</text>
		<text transform="matrix(0.8881 0 0 1 56.6018 215.4335)" class="st16 st14 st17">MyAwesomeAvatar</text>
		<path class="st12" d="M184.2,290.8H52.1c-1,0-1.9-0.8-1.9-1.9V268c0-1,0.8-1.9,1.9-1.9h132.1c1,0,1.9,0.8,1.9,1.9v20.9
			C186,290,185.2,290.8,184.2,290.8z"/>
		<text transform="matrix(0.8668 0 0 1 56.7805 261.8969)" class="st13 st14 st15">IMAGE LARGE KEY</text>
		<text transform="matrix(0.8881 0 0 1 56.6018 281.4769)" class="st16 st14 st17">MyAwesomeAvatar</text>
		<path class="st12" d="M184.2,373.5H52.1c-1,0-1.9-0.8-1.9-1.9v-20.9c0-1,0.8-1.9,1.9-1.9h132.1c1,0,1.9,0.8,1.9,1.9v20.9
			C186,372.7,185.2,373.5,184.2,373.5z"/>
		<text transform="matrix(0.8668 0 0 1 56.7805 344.6283)" class="st13 st14 st15">IMAGE LARGE KEY</text>
		<text transform="matrix(0.8881 0 0 1 56.6018 364.2084)" class="st16 st14 st17">MyAwesomeAvatar</text>
	</g>
	<g>
		<path class="st20" d="M610.5,407H203.2c-1.3,0-2.3-1-2.3-2.3V30.4c0-1.3,1-2.3,2.3-2.3h407.3c1.3,0,2.3,1,2.3,2.3v374.3
			C612.8,406,611.8,407,610.5,407z"/>
		<path d="M610.5,62H203.2c-1.3,0-2.3-1-2.3-2.3V30.4c0-1.3,1-2.3,2.3-2.3h407.3c1.3,0,2.3,1,2.3,2.3v29.3
			C612.8,61,611.8,62,610.5,62z"/>
		<path class="st21" d="M272.1,77.8c-14.1,0-25.2,11.4-25.2,25.3s11.3,25.3,25.2,25.3c14.1,0,25.2-11.4,25.2-25.3
			C297.5,89.2,286.2,77.8,272.1,77.8"/>
		
			<linearGradient id="SVGID_1_" gradientUnits="userSpaceOnUse" x1="406.3" y1="32.8756" x2="406.3" y2="170.9756" gradientTransform="matrix(1 0 0 -1 0 429.8756)">
			<stop  offset="0" style="stop-color:#000000;stop-opacity:0"/>
			<stop  offset="1" style="stop-color:#2F3136"/>
		</linearGradient>
		<rect x="234" y="258.9" class="st22" width="344.6" height="138.1"/>
		<rect x="234.1" y="139.3" class="st23" width="344.5" height="119.6"/>
		<rect x="234.1" y="228.4" class="st24" width="345" height="0.7"/>
		<path class="st25" d="M578.6,139.3H234.1V71.4c0-3,2.5-5.5,5.5-5.5h333.5c3,0,5.5,2.5,5.5,5.5V139.3z"/>
		<path class="st21" d="M272.1,77.8c-14.1,0-25.2,11.4-25.2,25.3s11.3,25.3,25.2,25.3c14.1,0,25.2-11.4,25.2-25.3
			C297.5,89.2,286.2,77.8,272.1,77.8"/>
		<path class="st25" d="M290.5,115.6c-3.3,0-5.9,2.7-5.9,6s2.7,6,5.9,6c3.3,0,5.9-2.7,5.9-6C296.5,118.3,293.8,115.6,290.5,115.6"/>
		<path class="st26" d="M290.5,116.7c-2.7,0-4.8,2.2-4.8,4.9c0,2.7,2.2,4.9,4.8,4.9c2.7,0,4.8-2.2,4.8-4.9
			C295.4,118.9,293.2,116.7,290.5,116.7"/>
		<g>
			<path class="st2" d="M297,193.6c0,5.7-1.9,10.9-5,15.1c-0.4,0.5-0.7,0.9-1.1,1.4c-0.7,0.9-1.6,1.7-2.4,2.5
				c-0.1,0.1-0.2,0.1-0.2,0.2c-4.5,3.9-10.3,6.3-16.7,6.3c-3.4,0-6.7-0.7-9.7-1.9c-2.6-1.1-5-2.5-7-4.4c-5.4-4.7-8.7-11.5-8.7-19.2
				c0-9.6,5.4-18,13.2-22.3c0.1-0.1,0.2-0.1,0.3-0.2h0.1c3.5-1.8,7.5-2.9,11.8-2.9c1.7,0,3.3,0.2,4.9,0.5c0.1,0,0.1,0,0.2,0l0,0
				c1.3,0.3,2.6,0.6,3.8,1.1l0,0h0.1c0.2,0.1,0.3,0.1,0.5,0.2c0.2,0.1,0.5,0.2,0.7,0.3C290.7,174.2,297,183.1,297,193.6z"/>
			<path class="st2" d="M285.8,205.6c5.2,0.9,5.7,1.9,7.1,4.7l-5.6-0.6L285.8,205.6z"/>
			<path class="st3" d="M259.3,171.2c1.4,5.8,2.8,11.6,4.3,17.4c3.1-0.6,6.2-1.3,9.3-1.9c-1.8-6.1-3.5-12.2-5.3-18.3
				c-1.2,0.2-2.7,0.5-4.3,1.1C261.7,170.1,260.4,170.7,259.3,171.2z"/>
			<path class="st4" d="M266.5,183.6l3.7-0.2l-3.9-12.7c-0.1-0.2-0.1-0.4-0.3-0.5c-0.1-0.1-0.3-0.3-0.4-0.4
				c-0.2-0.1-0.4-0.1-0.5-0.1c-0.2,0-0.4,0-0.6,0.1c-0.3,0.1-0.6,0.3-0.7,0.6c-0.2,0.3-0.2,0.6-0.1,1L266.5,183.6z"/>
			<path class="st3" d="M284.6,171.7c-1.3,5.6-2.6,11.2-3.9,16.7c-3.1-0.6-6.2-1.2-9.3-1.8c1.7-6,3.4-12.1,5.1-18.1
				c1.5,0.4,3.4,0.9,4.5,1.4L284.6,171.7z"/>
			<path class="st4" d="M279.2,183.6l-3.6-0.1l3.7-12.8c0.1-0.2,0.1-0.4,0.3-0.5c0.1-0.1,0.3-0.3,0.4-0.3c0.2-0.1,0.4-0.1,0.5-0.1
				c0.2,0,0.4,0,0.6,0.1c0.3,0.1,0.6,0.3,0.7,0.6c0.2,0.3,0.2,0.6,0.1,1L279.2,183.6z"/>
			<path class="st5" d="M254.9,212.8c2.1,1.8,4.5,3.3,7,4.4c3,1.2,6.2,1.9,9.7,1.9c6.4,0,12.2-2.4,16.7-6.3c0.1-0.1,0.2-0.1,0.2-0.2
				"/>
			<path class="st2" d="M288.5,212.5c-0.1,0.1-0.2,0.1-0.2,0.2c-4.5,3.9-10.3,6.3-16.7,6.3c-3.4,0-6.7-0.7-9.7-1.9
				c-2.6-1.1-5-2.5-7-4.4c0.6-0.7,1.2-1.4,2.1-2.2c0.9-0.8,1.2-1.1,2.1-2l0.1-0.1l0.1-0.1l0.2-0.2l0.2-0.2l0.2-0.2l0.9-0.1l22.8-3.6
				l1.8,3l0.1,0.2l2.9,4.8L288.5,212.5z"/>
			<path class="st6" d="M288.3,212.7c-4.5,3.9-10.3,6.3-16.7,6.3c-3.4,0-6.7-0.7-9.7-1.9c-0.5-3.4-1.9-5.7-5-6.5
				c0.7-0.7,1.3-1.3,2.1-2l0.1-0.1l0.1-0.1l0.2-0.2l0.4-0.3l0.9-0.1l22.8-3.6l0,0c1.4,0.5,2.4,0.9,3.4,1.6c0.4,0.3,0.7,0.6,1.1,1
				l0,0c0,0.1,0,0.2,0,0.2c0.1,0.9,0.1,1.8,0.2,2.7c0,0.8,0.1,1.6,0.1,2.4C288.3,212.3,288.3,212.5,288.3,212.7z"/>
			<path class="st7" d="M285.8,194.2l-27.5,1.1c-3.6,0.1-6.4,3.2-6.3,6.8l0,0c0.1,3.6,3.2,6.4,6.8,6.3l27.5-1.1
				c3.6-0.1,6.4-3.2,6.3-6.8l0,0C292.5,196.9,289.4,194.1,285.8,194.2z"/>
			<path class="st7" d="M284.4,182l-26.8,1.1c-3.8,0.2-6.8,3.4-6.6,7.2v0.2c0.2,3.8,3.4,6.8,7.2,6.6L285,196
				c3.8-0.2,6.8-3.4,6.6-7.2v-0.2C291.4,184.8,288.2,181.8,284.4,182z"/>
			<path class="st5" d="M286.3,207.1c3.5-0.2,6.4-3,6.4-6.5c0-1.3-0.4-2.5-1.1-3.6c-0.7-1.1-1.7-1.9-2.9-2.4
				c0.9-0.7,1.6-1.6,2.1-2.6s0.7-2.1,0.7-3.2v-0.2c0-0.9-0.3-1.8-0.6-2.6c-0.4-0.8-0.9-1.6-1.6-2.2c-0.7-0.6-1.5-1.1-2.3-1.4
				c-0.9-0.3-1.8-0.5-2.7-0.4l-23.9,1c-2.1,4.1-1.8,8.5-0.3,11.7c0.2,0.5,0.4,1,0.4,1.5s-0.1,1.1-0.3,1.6
				c-2.3,6.1,0.7,10.5,0.7,10.5L286.3,207.1z"/>
			<path class="st8" d="M267,194.7c0.6-0.4,0.6-1.4,0.1-2.3c-0.6-0.9-1.5-1.2-2.1-0.8c-0.6,0.4-0.6,1.4-0.1,2.3
				S266.4,195.1,267,194.7z"/>
			<path class="st8" d="M278.9,192.9c0.3-0.9,0-1.8-0.7-2c-0.6-0.2-1.4,0.4-1.6,1.4c-0.3,0.9,0,1.8,0.7,2
				C277.9,194.4,278.7,193.8,278.9,192.9z"/>
			<path class="st9" d="M269.6,197.8c1.7,2.8,4.1,3.5,5.8-0.2v-0.1v-0.1l-0.1-0.1h-0.1l-5.4,0.2h-0.1c0,0-0.1,0-0.1,0.1v0.1
				C269.6,197.7,269.6,197.7,269.6,197.8z"/>
			<path class="st10" d="M273,197.4l-3.2,0.1h-0.1c0,0-0.1,0-0.1,0.1v0.1v0.1c1.4,2.4,3.4,3.3,5,1.1
				C274.2,198.3,273.7,197.7,273,197.4z"/>
		</g>
		<text transform="matrix(0.8794 0 0 1 246.1062 163.8471)" class="st27 st14 st28">Играет в игру</text>
		<text transform="matrix(0.9645 0 0 1 310.0026 178.0766)" class="st27 st14 st28">Peppe</text>
		<text transform="matrix(0.9842 0 0 1 310.0031 189.8764)" class="st27 st29 st30">Just chilin</text>
		<text transform="matrix(1.0714 0 0 1 303.4001 248.6635)" class="st27 st29 st31">User info</text>
		<text transform="matrix(1.0714 0 0 1 356.5558 248.6644)" class="st27 st29 st31">Mutual Servers</text>
		<text transform="matrix(1.0714 0 0 1 432.0793 248.6625)" class="st27 st29 st31">Mutual Friends</text>
		<path class="st27" d="M336.3,258.9h-33.8V258c0-0.2,0.2-0.4,0.4-0.4h32.9c0.2,0,0.4,0.2,0.4,0.4L336.3,258.9L336.3,258.9z"/>
		<text transform="matrix(1.0187 0 0 1 309.1408 107.9252)" class="st27 st14 st32">Неопознаный Хомяк</text>
		<text transform="matrix(1.0167 0 0 1 435.7971 108.6146)" class="st33 st29 st30">#1234</text>
		<path class="st27" d="M280.8,115.6c0,0-1.1-1.4-2.1-2.6c4.1-1.2,5.7-3.8,5.7-3.8c-1.3,0.9-2.5,1.5-3.6,1.9
			c-1.6,0.7-3.1,1.1-4.6,1.4c-3,0.6-5.8,0.4-8.2,0c-1.8-0.3-3.4-0.9-4.7-1.4c-0.7-0.3-1.5-0.6-2.3-1.1c-0.1-0.1-0.2-0.1-0.3-0.2
			c-0.1,0-0.1-0.1-0.1-0.1c-0.6-0.3-0.9-0.5-0.9-0.5s1.5,2.5,5.5,3.7c-0.9,1.2-2.1,2.6-2.1,2.6c-7-0.2-9.7-4.8-9.7-4.8
			c0-10.2,4.6-18.5,4.6-18.5c4.6-3.4,8.9-3.3,8.9-3.3l0.3,0.4c-5.7,1.6-8.3,4.1-8.3,4.1s0.7-0.4,1.9-0.9c3.4-1.5,6.1-1.9,7.2-2
			c0.2,0,0.3-0.1,0.5-0.1c2.1-0.3,4.3-0.3,6.4-0.1c3,0.3,6.2,1.2,9.5,3c0,0-2.5-2.4-7.9-4l0.4-0.5c0,0,4.3-0.1,8.9,3.3
			c0,0,4.6,8.3,4.6,18.5C290.5,110.8,287.8,115.3,280.8,115.6L280.8,115.6z"/>
		<path class="st21" d="M266.1,100.8c-1.8,0-3.2,1.6-3.2,3.5s1.5,3.5,3.2,3.5c1.8,0,3.2-1.6,3.2-3.5S267.9,100.8,266.1,100.8"/>
		<path class="st21" d="M277.6,100.8c-1.8,0-3.2,1.6-3.2,3.5s1.5,3.5,3.2,3.5c1.8,0,3.2-1.6,3.2-3.5
			C280.9,102.4,279.4,100.8,277.6,100.8"/>
		<text transform="matrix(0.9423 0 0 1 215.0896 48.4965)" class="st27 st14 st34">Full Profile</text>
		<text transform="matrix(0.9423 0 0 1 277.801 49.2328)" class="st27 st14 st34">User Popout</text>
		<path class="st35" d="M253.1,58.6h-33.8v-0.9c0-0.2,0.2-0.4,0.4-0.4h32.9c0.2,0,0.4,0.2,0.4,0.4v0.9H253.1z"/>
	</g>
	<path class="st36" d="M136.3,264.5H58.4c-1,0-1.8-0.8-1.8-1.8v-7.5c0-1,0.8-1.8,1.8-1.8h77.9c1,0,1.8,0.8,1.8,1.8v7.5
		C138.2,263.7,137.3,264.5,136.3,264.5z"/>
	<path class="st37" d="M174.3,285.4H56.2c-1,0-1.8-0.8-1.8-1.8v-10.1c0-1,0.8-1.8,1.8-1.8h118.1c1,0,1.8,0.8,1.8,1.8v10.1
		C176.1,284.6,175.3,285.4,174.3,285.4z"/>
	<path class="st36" d="M188.2,377.9H48.7c-1,0-1.8-0.8-1.8-1.8v-41.8c0-1,0.8-1.8,1.8-1.8h139.5c1,0,1.8,0.8,1.8,1.8v41.8
		C190.1,377.1,189.3,377.9,188.2,377.9z"/>
</g>
</svg>
