<?xml version="1.0" encoding="utf-8"?>
<!-- Generator: Adobe Illustrator 24.1.2, SVG Export Plug-In . SVG Version: 6.00 Build 0)  -->
<svg version="1.1" id="Слой_1" xmlns="http://www.w3.org/2000/svg" xmlns:xlink="http://www.w3.org/1999/xlink" x="0px" y="0px"
	 viewBox="0 0 166.4 245" style="enable-background:new 0 0 166.4 245;" xml:space="preserve">
<style type="text/css">
	.st0{fill:#36393F;}
	.st1{fill:#202225;}
	.st2{fill:#7289DA;}
	.st3{fill:#FFFFFF;}
	.st4{fill:none;}
	.st5{fill:#B9BBBE;}
	.st6{fill:#404348;}
</style>
<g>
	<path class="st0" d="M151.6,208.1H39.9c-8.2,0-14.8-6.6-14.8-14.8V33.2c0-8.2,6.6-14.8,14.8-14.8h111.8c8.2,0,14.8,6.6,14.8,14.8
		v160.1C166.4,201.5,159.8,208.1,151.6,208.1z"/>
	<path class="st1" d="M41.4,245H7.4c-4.1,0-7.4-3.3-7.4-7.4V7.4C0,3.3,3.3,0,7.4,0h34.1c4.1,0,7.4,3.3,7.4,7.4v230.3
		C48.8,241.7,45.5,245,41.4,245z"/>
	<path class="st2" d="M31.4,73.4H17.7c-5.5,0-10-4.5-10-10V50.8c0-5.5,4.5-10,10-10h13.8c5.5,0,10,4.5,10,10v12.6
		C41.5,68.9,37,73.4,31.4,73.4z"/>
	<path class="st0" d="M24.9,35.5h-1.2c-9,0-16.3-7.3-16.3-16.3v0c0-9,7.3-16.3,16.3-16.3h1.2c9,0,16.3,7.3,16.3,16.3v0
		C41.2,28.2,33.9,35.5,24.9,35.5z"/>
	<path class="st2" d="M31.2,111.2H17.4c-5.5,0-10-4.5-10-10V88.6c0-5.5,4.5-10,10-10h13.8c5.5,0,10,4.5,10,10v12.6
		C41.2,106.7,36.7,111.2,31.2,111.2z"/>
	<path class="st0" d="M24.6,148.4h-1.2c-9,0-16.3-7.3-16.3-16.3v0c0-9,7.3-16.3,16.3-16.3h1.2c9,0,16.3,7.3,16.3,16.3v0
		C40.9,141.1,33.6,148.4,24.6,148.4z"/>
	<path class="st3" d="M0.7,70.1H0L0,44h0.7c1.1,0,2,0.9,2,2v22.2C2.7,69.2,1.8,70.1,0.7,70.1z"/>
	<path class="st3" d="M0.8,101.4H0l0-13h0.8c1.1,0,2,0.9,2,2v9.1C2.8,100.5,1.9,101.4,0.8,101.4z"/>
	<path d="M97.5,105.3h-40c-1.4,0-2.6-1.2-2.6-2.6V87.1c0-1.4,1.2-2.6,2.6-2.6h40c1.4,0,2.6,1.2,2.6,2.6v15.6
		C100.1,104.2,98.9,105.3,97.5,105.3z"/>
	<rect x="53.4" y="92.7" transform="matrix(0.7071 -0.7071 0.7071 0.7071 -50.8231 67.0093)" width="4.2" height="4.2"/>
	<g>
		<rect x="59.5" y="92.3" class="st4" width="42.3" height="9.6"/>
		<path class="st3" d="M68.5,92.7L66.8,99h-1.6l-1-4c-0.1-0.2-0.1-0.4-0.1-0.7h0c0,0.3-0.1,0.5-0.1,0.7l-1.1,4h-1.6l-1.7-6.3h1.6
			l0.9,4.2c0,0.2,0.1,0.4,0.1,0.7h0c0-0.2,0.1-0.5,0.1-0.7l1.1-4.2h1.5l1,4.2c0,0.2,0.1,0.4,0.1,0.7h0c0-0.2,0-0.5,0.1-0.7l0.9-4.2
			H68.5z"/>
		<path class="st3" d="M72.7,99h-1.3v-0.6h0c-0.3,0.5-0.7,0.8-1.3,0.8c-0.4,0-0.8-0.1-1-0.4c-0.3-0.2-0.4-0.6-0.4-1
			c0-0.9,0.5-1.4,1.6-1.5l1.2-0.2c0-0.5-0.3-0.7-0.8-0.7c-0.5,0-1,0.2-1.5,0.5v-1c0.2-0.1,0.5-0.2,0.8-0.3s0.6-0.1,0.9-0.1
			c1.3,0,1.9,0.6,1.9,1.9V99z M71.4,97.2v-0.3L70.6,97c-0.5,0.1-0.7,0.3-0.7,0.6c0,0.2,0.1,0.3,0.2,0.4c0.1,0.1,0.3,0.2,0.4,0.2
			c0.3,0,0.5-0.1,0.6-0.3C71.4,97.7,71.4,97.4,71.4,97.2z"/>
		<path class="st3" d="M77,95.7c-0.2-0.1-0.4-0.1-0.6-0.1c-0.3,0-0.5,0.1-0.7,0.3s-0.3,0.5-0.3,0.9V99h-1.4v-4.5h1.4v0.8h0
			c0.2-0.6,0.6-0.9,1.2-0.9c0.1,0,0.3,0,0.3,0.1V95.7z"/>
		<path class="st3" d="M81,93.4c-0.2-0.1-0.4-0.1-0.5-0.1c-0.4,0-0.7,0.2-0.7,0.7v0.5h1v1h-1V99h-1.4v-3.5h-0.8v-1h0.8v-0.6
			c0-0.5,0.2-0.9,0.5-1.2s0.8-0.5,1.4-0.5c0.3,0,0.5,0,0.7,0.1V93.4z"/>
		<path class="st3" d="M85.5,99h-1.3v-0.6h0c-0.3,0.5-0.7,0.8-1.3,0.8c-0.4,0-0.8-0.1-1-0.4c-0.3-0.2-0.4-0.6-0.4-1
			c0-0.9,0.5-1.4,1.6-1.5l1.2-0.2c0-0.5-0.3-0.7-0.8-0.7c-0.5,0-1,0.2-1.5,0.5v-1c0.2-0.1,0.5-0.2,0.8-0.3s0.6-0.1,0.9-0.1
			c1.3,0,1.9,0.6,1.9,1.9V99z M84.2,97.2v-0.3L83.4,97c-0.5,0.1-0.7,0.3-0.7,0.6c0,0.2,0.1,0.3,0.2,0.4c0.1,0.1,0.3,0.2,0.4,0.2
			c0.3,0,0.5-0.1,0.6-0.3C84.1,97.7,84.2,97.4,84.2,97.2z"/>
		<path class="st3" d="M90.2,98.8c-0.3,0.2-0.8,0.3-1.4,0.3c-0.7,0-1.3-0.2-1.7-0.6s-0.6-1-0.6-1.6c0-0.8,0.2-1.4,0.7-1.8
			s1.1-0.7,1.8-0.7c0.5,0,0.9,0.1,1.2,0.2v1.2c-0.3-0.2-0.6-0.3-1-0.3c-0.4,0-0.7,0.1-0.9,0.3c-0.2,0.2-0.3,0.6-0.3,1
			c0,0.4,0.1,0.7,0.3,0.9s0.5,0.3,0.9,0.3c0.3,0,0.7-0.1,1-0.3V98.8z"/>
		<path class="st3" d="M95.4,97.1h-2.9c0,0.7,0.5,1,1.2,1c0.5,0,0.9-0.1,1.3-0.4v1c-0.4,0.2-1,0.3-1.6,0.3c-0.7,0-1.3-0.2-1.7-0.6
			s-0.6-1-0.6-1.7c0-0.7,0.2-1.3,0.7-1.8s1-0.7,1.6-0.7c0.7,0,1.2,0.2,1.5,0.6s0.5,0.9,0.5,1.6V97.1z M94.1,96.3c0-0.6-0.3-1-0.8-1
			c-0.2,0-0.4,0.1-0.6,0.3c-0.2,0.2-0.3,0.4-0.3,0.7H94.1z"/>
	</g>
	<g>
		<polygon class="st3" points="15.7,85.7 19.8,88 19.8,100.2 22.6,99.9 15.7,103.9 		"/>
		<polygon class="st3" points="22.4,92.9 22.4,98.3 24.4,103.6 26.4,98.3 26.4,92.9 		"/>
		<polygon class="st3" points="26.2,99.9 33,103.9 33,85.7 29,88 29,100.2 		"/>
	</g>
	<g>
		<path d="M29.8,140.9H19c-1.8,0-3.3-1.5-3.3-3.3V128c0-1.8,1.5-3.3,3.3-3.3h10.7c1.8,0,3.3,1.5,3.3,3.3v9.6
			C33,139.4,31.6,140.9,29.8,140.9z"/>
		<path class="st0" d="M16.5,137.1c0.3,0.3,1,1,2,1.1c0.1,0,0.3,0,0.4,0c3.7,0,7.4,0,11.1,0c0.3,0,0.7-0.1,1.1-0.3
			c0.6-0.3,0.9-0.6,1.1-0.8c0,0.1,0.3,1.4-0.7,2.3c-0.6,0.6-1.4,0.7-1.6,0.7c-3.7,0-7.4,0-11.2,0c-0.2,0-1-0.1-1.6-0.6
			C16.2,138.6,16.5,137.2,16.5,137.1z"/>
		<g>
			<g>
				<path class="st0" d="M22.1,132.1c0,0.7-0.4,1.5-1.6,1.6c-0.6,0-0.9-0.2-1.3-0.5c-0.3-0.3-0.5-0.9-0.5-1.5c0-0.6,0.2-1.1,0.5-1.4
					c0.4-0.4,0.6-0.5,1.2-0.6c0.7,0,1.6,0.6,1.6,1.3l-0.6,0c-0.1-0.2-0.4-0.8-1-0.8c-0.3,0-0.6,0.2-0.7,0.5c-0.2,0.2-0.3,0.7-0.3,1
					c0,0.4,0.1,0.8,0.3,1c0.2,0.2,0.3,0.4,0.7,0.4c0.7,0,1-0.6,1-1H22.1z"/>
				<path class="st0" d="M26.6,133.6h-0.8V132c0-0.4-0.1-0.6-0.4-0.6c-0.1,0-0.2,0.1-0.3,0.2c-0.1,0.1-0.1,0.3-0.1,0.4v1.5h-0.8V132
					c0-0.4-0.1-0.6-0.4-0.6c-0.1,0-0.2,0.1-0.3,0.2c-0.1,0.1-0.1,0.3-0.1,0.5v1.5h-0.8v-2.7h0.8v0.4h0c0.1-0.1,0.2-0.3,0.3-0.4
					c0.1-0.1,0.3-0.1,0.5-0.1c0.4,0,0.6,0.2,0.8,0.5c0.2-0.3,0.5-0.5,0.9-0.5c0.6,0,0.8,0.4,0.8,1.1V133.6z"/>
				<path class="st0" d="M29.6,133.6h-0.8v-0.4h0c-0.2,0.3-0.4,0.4-0.8,0.4c-0.3,0-0.6-0.1-0.8-0.4c-0.2-0.2-0.3-0.6-0.3-1
					c0-0.4,0.1-0.8,0.3-1.1c0.2-0.3,0.5-0.4,0.9-0.4c0.3,0,0.6,0.1,0.7,0.4h0v-1.6h0.8V133.6z M28.9,132.3v-0.2c0-0.2,0-0.3-0.1-0.4
					c-0.1-0.1-0.2-0.2-0.4-0.2c-0.2,0-0.3,0.1-0.4,0.2c-0.1,0.1-0.1,0.3-0.1,0.6c0,0.2,0,0.4,0.1,0.6s0.2,0.2,0.4,0.2
					c0.2,0,0.3-0.1,0.4-0.2C28.8,132.7,28.9,132.5,28.9,132.3z"/>
			</g>
		</g>
	</g>
	<path class="st5" d="M19.6,53.5l2.1-1.8l-2.7-3.1c0-0.1-0.1-0.2,0-0.4c0-0.1,0.1-0.1,0.2-0.1c0.4-0.2,0.9-0.2,0.9-0.2
		c0.4,0,1-0.1,1.6,0.1c1.3,0.3,2.1,1.2,2.4,1.5c0.3,0.3,1,1.3,1,2.8c0,0.9-0.2,1.6-0.4,2c4.7,5.6,8,9.6,8.1,9.7c0,0,0.1,0.1,0.1,0.2
		c0,0,0,0.1-0.1,0.1c-0.2,0.2-0.2,0.2-0.2,0.2l-2.1,1.8c0,0-0.2,0.2-0.4,0c-0.2-0.2-8.1-9.6-8.1-9.6c-0.4,0.1-1.7,0.5-3.2-0.1
		c-0.2-0.1-1.9-0.8-2.6-2.7c0,0-0.6-1.5,0-3.2c0-0.1,0.1-0.2,0.2-0.3c0.1-0.1,0.3-0.1,0.3,0C17.8,51.4,18.7,52.4,19.6,53.5z"/>
	<path class="st5" d="M29.9,12.6H18.7c-0.6,0-1.1,0.5-1.1,1.1v10.8c0,0.6,0.5,1.1,1.1,1.1h11.2c0.6,0,1.1-0.5,1.1-1.1V13.8
		C31.1,13.1,30.5,12.6,29.9,12.6z M25.7,22.4c0,0.3-0.3,0.6-0.7,0.6h-4.9c-0.4,0-0.7-0.3-0.7-0.6v-0.3c0-0.3,0.3-0.6,0.7-0.6h4.9
		c0.4,0,0.7,0.3,0.7,0.6V22.4z M29.1,19.3c0,0.4-0.3,0.7-0.7,0.7h-8.2c-0.4,0-0.7-0.3-0.7-0.7V19c0-0.4,0.3-0.7,0.7-0.7h8.2
		c0.4,0,0.7,0.3,0.7,0.7V19.3z M29.1,15.9c0,0.3-0.3,0.6-0.6,0.6h-8.2c-0.4,0-0.6-0.3-0.6-0.6v-0.3c0-0.3,0.3-0.6,0.6-0.6h8.2
		c0.4,0,0.6,0.3,0.6,0.6V15.9z"/>
	<path class="st0" d="M28,185.6h-6.9c-7.4,0-13.5-6-13.5-13.5v-5.7c0-7.4,6-13.5,13.5-13.5H28c7.4,0,13.5,6,13.5,13.5v5.7
		C41.5,179.6,35.4,185.6,28,185.6z"/>
	<path class="st0" d="M25.5,222.8h-1.2c-9,0-16.3-7.3-16.3-16.3v0c0-9,7.3-16.3,16.3-16.3h1.2c9,0,16.3,7.3,16.3,16.3v0
		C41.8,215.5,34.5,222.8,25.5,222.8z"/>
	<g>
		<path d="M30.7,215.2H20c-1.8,0-3.3-1.5-3.3-3.3v-9.6c0-1.8,1.5-3.3,3.3-3.3h10.7c1.8,0,3.3,1.5,3.3,3.3v9.6
			C34,213.8,32.5,215.2,30.7,215.2z"/>
		<path class="st0" d="M17.4,211.5c0.3,0.3,1,1,2,1.1c0.1,0,0.3,0,0.4,0c3.7,0,7.4,0,11.1,0c0.3,0,0.7-0.1,1.1-0.3
			c0.6-0.3,0.9-0.6,1.1-0.8c0,0.1,0.3,1.4-0.7,2.3c-0.6,0.6-1.4,0.7-1.6,0.7c-3.7,0-7.4,0-11.2,0c-0.2,0-1-0.1-1.6-0.6
			C17.2,213,17.4,211.6,17.4,211.5z"/>
		<g>
			<g>
				<path class="st0" d="M23,206.5c0,0.7-0.4,1.5-1.6,1.6c-0.6,0-0.9-0.2-1.3-0.5c-0.3-0.3-0.5-0.9-0.5-1.5c0-0.6,0.2-1.1,0.5-1.4
					c0.4-0.4,0.6-0.5,1.2-0.6c0.7,0,1.6,0.6,1.6,1.3l-0.6,0c-0.1-0.2-0.4-0.8-1-0.8c-0.3,0-0.6,0.2-0.7,0.5c-0.2,0.2-0.3,0.7-0.3,1
					c0,0.4,0.1,0.8,0.3,1c0.2,0.2,0.3,0.4,0.7,0.4c0.7,0,1-0.6,1-1H23z"/>
				<path class="st0" d="M27.6,208h-0.8v-1.5c0-0.4-0.1-0.6-0.4-0.6c-0.1,0-0.2,0.1-0.3,0.2s-0.1,0.3-0.1,0.4v1.5h-0.8v-1.6
					c0-0.4-0.1-0.6-0.4-0.6c-0.1,0-0.2,0.1-0.3,0.2c-0.1,0.1-0.1,0.3-0.1,0.5v1.5h-0.8v-2.7h0.8v0.4h0c0.1-0.1,0.2-0.3,0.3-0.4
					c0.1-0.1,0.3-0.1,0.5-0.1c0.4,0,0.6,0.2,0.8,0.5c0.2-0.3,0.5-0.5,0.9-0.5c0.6,0,0.8,0.4,0.8,1.1V208z"/>
				<path class="st0" d="M30.6,208h-0.8v-0.4h0c-0.2,0.3-0.4,0.4-0.8,0.4c-0.3,0-0.6-0.1-0.8-0.4c-0.2-0.2-0.3-0.6-0.3-1
					c0-0.4,0.1-0.8,0.3-1.1c0.2-0.3,0.5-0.4,0.9-0.4c0.3,0,0.6,0.1,0.7,0.4h0V204h0.8V208z M29.8,206.7v-0.2c0-0.2,0-0.3-0.1-0.4
					c-0.1-0.1-0.2-0.2-0.4-0.2c-0.2,0-0.3,0.1-0.4,0.2c-0.1,0.1-0.1,0.3-0.1,0.6c0,0.2,0,0.4,0.1,0.6s0.2,0.2,0.4,0.2
					c0.2,0,0.3-0.1,0.4-0.2C29.8,207.1,29.8,206.9,29.8,206.7z"/>
			</g>
		</g>
	</g>
	<path class="st6" d="M32.1,142.8H15.8c-1.8,0-3.3-1.5-3.3-3.3v-14.8c0-1.8,1.5-3.3,3.3-3.3h16.3c1.8,0,3.3,1.5,3.3,3.3v14.8
		C35.4,141.3,34,142.8,32.1,142.8z"/>
</g>
<g>
</g>
<g>
</g>
<g>
</g>
<g>
</g>
<g>
</g>
</svg>
