<svg id="Слой_1" data-name="Слой 1" xmlns="http://www.w3.org/2000/svg" xmlns:xlink="http://www.w3.org/1999/xlink" viewBox="0 0 612.8 428.2"><defs><style>.cls-1{fill:#36393f;}.cls-2{fill:#313339;stroke:#abadb3;stroke-width:0.75px;}.cls-12,.cls-2{stroke-miterlimit:10;}.cls-3{isolation:isolate;}.cls-4{fill:#adbbbe;}.cls-5{fill:#d3d3d3;}.cls-6{fill:#18191c;}.cls-7{fill:#747f8d;}.cls-8{fill:url(#Безымянный_градиент);}.cls-9{fill:#677cc6;}.cls-10{fill:#6c82cf;}.cls-11{fill:#7289da;}.cls-12{fill:#43b581;stroke:#80cfaa;stroke-width:0.5px;}.cls-13{fill:#f7e5bc;}.cls-14{fill:#d6569b;}.cls-15{fill:#e374b0;}.cls-16{fill:#e05fa3;}.cls-17{fill:#1f3a70;}.cls-18{fill:#f06ea8;}.cls-19{fill:#1b1926;}.cls-20{fill:#751b40;}.cls-21{fill:#9c2455;}.cls-22{fill:#fff;}.cls-23{fill:#c4ccf0;}.cls-24{fill:#7189da;}.cls-25{fill:#404348;}.cls-26{fill:#3b3d43;}</style><linearGradient id="Безымянный_градиент" x1="406.3" y1="32.88" x2="406.3" y2="170.98" gradientTransform="matrix(1, 0, 0, -1, 0, 429.88)" gradientUnits="userSpaceOnUse"><stop offset="0" stop-opacity="0"/><stop offset="1" stop-color="#2f3136"/></linearGradient></defs><g id="Слой_3" data-name="Слой 3"><path class="cls-1" d="M271.7,428.2H45.7a7.38,7.38,0,0,1-7.4-7.4V7.4A7.38,7.38,0,0,1,45.7,0h226a7.38,7.38,0,0,1,7.4,7.4V420.8A7.51,7.51,0,0,1,271.7,428.2Z"/><path class="cls-1" d="M93,174.8H7.4A7.38,7.38,0,0,1,0,167.4V82a7.38,7.38,0,0,1,7.4-7.4H92.9a7.38,7.38,0,0,1,7.4,7.4v85.5A7.34,7.34,0,0,1,93,174.8Z"/><path class="cls-2" d="M184.2,55.7H52.1a1.9,1.9,0,0,1-1.9-1.9V33a1.9,1.9,0,0,1,1.9-1.9H184.2a1.9,1.9,0,0,1,1.9,1.9V53.9A2,2,0,0,1,184.2,55.7Z"/><g class="cls-3"><path class="cls-4" d="M61.87,26.4a3.52,3.52,0,0,1-2,.53,2.63,2.63,0,0,1-2.07-.84,3.3,3.3,0,0,1-.76-2.31,3.49,3.49,0,0,1,.83-2.41,2.77,2.77,0,0,1,2.2-.94,3.83,3.83,0,0,1,1.53.28V22a2.66,2.66,0,0,0-1.54-.43,1.57,1.57,0,0,0-1.25.58,2.29,2.29,0,0,0-.48,1.52,2.35,2.35,0,0,0,.43,1.5,1.44,1.44,0,0,0,1.17.53,1.55,1.55,0,0,0,.7-.14V24.37H59.56V23.24h2.31Z"/><path class="cls-4" d="M67.72,26.82H66.38L66,25.42H64.06l-.39,1.4H62.35l2-6.28h1.45Zm-2-2.49-.58-2.11a2.62,2.62,0,0,1-.09-.56h0a3.53,3.53,0,0,1-.1.55l-.59,2.12Z"/><path class="cls-4" d="M74.6,26.82H73.39V23.06c0-.41,0-.85,0-1.34h0a7.15,7.15,0,0,1-.17.83L72,26.82H71l-1.3-4.23a6,6,0,0,1-.17-.87h0c0,.61,0,1.16,0,1.62v3.48H68.4V20.54h1.79l1.11,3.72a5.81,5.81,0,0,1,.2.9h0c.07-.35.14-.65.22-.91l1.11-3.71H74.6Z"/><path class="cls-4" d="M79.1,26.82H75.84V20.54H79v1.15H77.06v1.4h1.78v1.14H77.06v1.44h2Z"/></g><g class="cls-3"><path class="cls-5" d="M58.6,44.12V46.4H57.27V39.78h2.08c1.48,0,2.22.7,2.22,2.11a2.12,2.12,0,0,1-.64,1.61,2.34,2.34,0,0,1-1.7.62Zm0-3.19V43h.52a.93.93,0,0,0,1.05-1,.92.92,0,0,0-1.05-1Z"/><path class="cls-5" d="M65.82,44.45H63.08a1,1,0,0,0,1.16,1,2,2,0,0,0,1.21-.37v1a2.84,2.84,0,0,1-1.51.35,2,2,0,0,1-1.58-.63,2.59,2.59,0,0,1-.56-1.77,2.67,2.67,0,0,1,.61-1.86,1.9,1.9,0,0,1,1.49-.69,1.74,1.74,0,0,1,1.42.61,2.6,2.6,0,0,1,.5,1.67Zm-1.2-.89c0-.68-.24-1-.73-1a.68.68,0,0,0-.54.29,1.43,1.43,0,0,0-.27.73Z"/><path class="cls-5" d="M67.9,45.85h0v2.72h-1.3v-6.9h1.3v.71h0a1.49,1.49,0,0,1,1.35-.82,1.46,1.46,0,0,1,1.26.63A2.89,2.89,0,0,1,71,43.9a3.21,3.21,0,0,1-.51,1.9,1.65,1.65,0,0,1-1.38.71A1.28,1.28,0,0,1,67.9,45.85Zm0-1.94v.38a1.33,1.33,0,0,0,.22.8A.77.77,0,0,0,69.38,45a2,2,0,0,0,.25-1.09c0-.83-.29-1.25-.86-1.25a.79.79,0,0,0-.65.34A1.48,1.48,0,0,0,67.87,43.91Z"/><path class="cls-5" d="M73.11,45.85h0v2.72h-1.3v-6.9h1.3v.71h0a1.47,1.47,0,0,1,1.34-.82,1.44,1.44,0,0,1,1.26.63,2.89,2.89,0,0,1,.45,1.71,3.14,3.14,0,0,1-.52,1.9,1.65,1.65,0,0,1-1.38.71A1.26,1.26,0,0,1,73.11,45.85Zm0-1.94v.38a1.33,1.33,0,0,0,.23.8.72.72,0,0,0,.6.31.78.78,0,0,0,.69-.39,2.07,2.07,0,0,0,.24-1.09c0-.83-.29-1.25-.86-1.25a.8.8,0,0,0-.65.34A1.48,1.48,0,0,0,73.07,43.91Z"/><path class="cls-5" d="M80.77,44.45H78a1,1,0,0,0,1.15,1,2,2,0,0,0,1.22-.37v1a2.84,2.84,0,0,1-1.51.35,2,2,0,0,1-1.58-.63,2.59,2.59,0,0,1-.56-1.77,2.72,2.72,0,0,1,.6-1.86,1.93,1.93,0,0,1,1.5-.69,1.74,1.74,0,0,1,1.42.61,2.6,2.6,0,0,1,.5,1.67Zm-1.2-.89c0-.68-.25-1-.73-1a.68.68,0,0,0-.54.29,1.53,1.53,0,0,0-.28.73Z"/></g><path class="cls-2" d="M184.2,143.7H17.8a1.9,1.9,0,0,1-1.9-1.9V114.7a1.9,1.9,0,0,1,1.9-1.9H184.2a1.9,1.9,0,0,1,1.9,1.9v27.1A2,2,0,0,1,184.2,143.7Z"/><g class="cls-3"><path class="cls-4" d="M24.9,107.51V99.64h2.42q3.63,0,3.63,3.84a4.21,4.21,0,0,1-1,2.93,3.39,3.39,0,0,1-2.64,1.1Zm1.54-6.43v5h.76a1.92,1.92,0,0,0,1.56-.69,2.87,2.87,0,0,0,.57-1.88,2.63,2.63,0,0,0-.56-1.77,2,2,0,0,0-1.58-.65Z"/><path class="cls-4" d="M36.17,107.51H32.08V99.64H36v1.44H33.62v1.75h2.23v1.44H33.62v1.8h2.55Z"/><path class="cls-4" d="M42.14,101.08h-2v6.43H38.65v-6.43H36.72V99.64h5.42Z"/><path class="cls-4" d="M48.37,107.51H46.7l-.49-1.75H43.79l-.48,1.75H41.64l2.49-7.87H46Zm-2.51-3.11-.73-2.65a4,4,0,0,1-.11-.7h0a4,4,0,0,1-.12.68l-.74,2.67Z"/><path class="cls-4" d="M50.76,107.51H49.22V99.64h1.54Z"/><path class="cls-4" d="M56.37,107.51H52.31V99.64h1.54v6.43h2.52Z"/><path class="cls-4" d="M57,107.21v-1.76a2.69,2.69,0,0,0,.89.6,2.64,2.64,0,0,0,1,.2,1.88,1.88,0,0,0,.51-.06.93.93,0,0,0,.36-.17.65.65,0,0,0,.22-.25.67.67,0,0,0,.07-.31.85.85,0,0,0-.11-.42,1.24,1.24,0,0,0-.32-.33,3.67,3.67,0,0,0-.46-.3l-.59-.29a3,3,0,0,1-1.19-.94,2.23,2.23,0,0,1-.39-1.33,2.44,2.44,0,0,1,.21-1.06,2.09,2.09,0,0,1,.58-.73,2.47,2.47,0,0,1,.86-.42,3.75,3.75,0,0,1,1-.13,5.42,5.42,0,0,1,1,.07,3.54,3.54,0,0,1,.76.23v1.64a2.45,2.45,0,0,0-.38-.24,2.09,2.09,0,0,0-.41-.17,2.41,2.41,0,0,0-.43-.1,2,2,0,0,0-.88,0,1.19,1.19,0,0,0-.36.16.78.78,0,0,0-.23.25.73.73,0,0,0-.08.33.68.68,0,0,0,.09.35,1,1,0,0,0,.26.3,2.91,2.91,0,0,0,.41.27c.15.09.33.18.53.28a5.14,5.14,0,0,1,.74.42,3.38,3.38,0,0,1,.56.5,2.09,2.09,0,0,1,.35.64,2.39,2.39,0,0,1,.13.84,2.56,2.56,0,0,1-.22,1.1,1.93,1.93,0,0,1-.59.73,2.34,2.34,0,0,1-.86.39,4.42,4.42,0,0,1-1,.13,5.32,5.32,0,0,1-1.07-.11A3.29,3.29,0,0,1,57,107.21Z"/></g><g class="cls-3"><path class="cls-5" d="M27.81,128.75a4.08,4.08,0,0,1-.69,2.55,2.36,2.36,0,0,1-2,.88,2.58,2.58,0,0,1-1.08-.22v-1.75a1.47,1.47,0,0,0,1,.36c.76,0,1.13-.63,1.13-1.9v-4.92h1.66Z"/><path class="cls-5" d="M34.25,132H32.64v-.9h0a1.82,1.82,0,0,1-1.61,1c-1.21,0-1.82-.83-1.82-2.49v-3.57h1.61v3.41c0,.84.3,1.25.89,1.25a.81.81,0,0,0,.69-.34,1.47,1.47,0,0,0,.27-.93v-3.39h1.61Z"/><path class="cls-5" d="M35.27,131.88V130.4a3.57,3.57,0,0,0,.8.41,2.37,2.37,0,0,0,.75.13,1.42,1.42,0,0,0,.68-.13.44.44,0,0,0,.25-.41.39.39,0,0,0-.11-.29,1.13,1.13,0,0,0-.29-.2,3.52,3.52,0,0,0-.39-.16,2.74,2.74,0,0,1-.4-.15,4,4,0,0,1-.55-.29,1.47,1.47,0,0,1-.65-.82,2,2,0,0,1-.09-.63,1.7,1.7,0,0,1,.71-1.44,2.23,2.23,0,0,1,.73-.34,3.56,3.56,0,0,1,.86-.11,4.27,4.27,0,0,1,.71.07,4.32,4.32,0,0,1,.71.17v1.41a2.47,2.47,0,0,0-.66-.3,2.35,2.35,0,0,0-.69-.1,1.39,1.39,0,0,0-.3,0,.92.92,0,0,0-.25.09.44.44,0,0,0-.17.16.37.37,0,0,0-.06.21A.45.45,0,0,0,37,128a.68.68,0,0,0,.24.2,1.52,1.52,0,0,0,.34.15l.36.14a3.9,3.9,0,0,1,.58.27,1.62,1.62,0,0,1,.45.36,1.33,1.33,0,0,1,.29.47,1.81,1.81,0,0,1,.1.65,1.93,1.93,0,0,1-.2.9,1.74,1.74,0,0,1-.54.6,2.51,2.51,0,0,1-.78.35,3.85,3.85,0,0,1-.91.1A4.27,4.27,0,0,1,35.27,131.88Z"/><path class="cls-5" d="M43.42,132a2.19,2.19,0,0,1-1.08.21c-1.15,0-1.72-.67-1.72-2v-2.71h-.85v-1.35h.85v-1.28l1.62-.52v1.8h1.18v1.35H42.24v2.39c0,.61.22.92.65.92a1,1,0,0,0,.53-.16Z"/><path class="cls-5" d="M51.22,131.82a2.92,2.92,0,0,1-1.59.36,2.52,2.52,0,0,1-2-.82,3.09,3.09,0,0,1-.75-2.14,3.41,3.41,0,0,1,.8-2.38,2.82,2.82,0,0,1,2.15-.87,2.56,2.56,0,0,1,1.35.28v1.55a1.76,1.76,0,0,0-1.14-.43,1.42,1.42,0,0,0-1.1.46,2.17,2.17,0,0,0,0,2.51,1.37,1.37,0,0,0,1.07.44,2,2,0,0,0,1.19-.42Z"/><path class="cls-5" d="M57.32,132H55.71v-3.37c0-.86-.28-1.3-.84-1.3a.84.84,0,0,0-.7.37,1.5,1.5,0,0,0-.27.92V132H52.28v-8.76H53.9V127h0a1.83,1.83,0,0,1,1.62-1c1.19,0,1.78.81,1.78,2.43Z"/><path class="cls-5" d="M59.43,125.18a.87.87,0,0,1-.67-.27,1,1,0,0,1,0-1.35.93.93,0,0,1,1.6.68.92.92,0,0,1-.26.68A.9.9,0,0,1,59.43,125.18Zm.8,6.86H58.61v-5.92h1.62Z"/><path class="cls-5" d="M63.22,132H61.59v-8.76h1.63Z"/><path class="cls-5" d="M65.4,125.18a.89.89,0,0,1-.67-.27,1,1,0,0,1-.26-.67.94.94,0,0,1,.26-.68.91.91,0,0,1,.67-.25.88.88,0,0,1,.94.93,1,1,0,0,1-.26.68A.94.94,0,0,1,65.4,125.18Zm.8,6.86H64.58v-5.92H66.2Z"/><path class="cls-5" d="M72.64,132H71v-3.29q0-1.38-.87-1.38a.84.84,0,0,0-.7.37,1.5,1.5,0,0,0-.27.92V132H67.57v-5.92h1.62v.94h0A1.84,1.84,0,0,1,70.9,126c1.16,0,1.74.82,1.74,2.44Z"/></g><path class="cls-2" d="M184.2,224.8H52.1a1.9,1.9,0,0,1-1.9-1.9V202a1.9,1.9,0,0,1,1.9-1.9H184.2a1.9,1.9,0,0,1,1.9,1.9v20.9A2,2,0,0,1,184.2,224.8Z"/><g class="cls-3"><path class="cls-4" d="M58.63,195.85H57.4v-6.28h1.23Z"/><path class="cls-4" d="M66.07,195.85H64.86V192.1c0-.41,0-.86,0-1.35h0a6.71,6.71,0,0,1-.17.83l-1.27,4.27h-1l-1.3-4.22a6.64,6.64,0,0,1-.17-.88h0c0,.62,0,1.16,0,1.63v3.47h-1.1v-6.28h1.79l1.11,3.73a5.45,5.45,0,0,1,.2.89h0a9.17,9.17,0,0,1,.22-.9l1.11-3.72h1.75Z"/><path class="cls-4" d="M72.09,195.85H70.76l-.39-1.39H68.43l-.38,1.39H66.72l2-6.28h1.46Zm-2-2.48-.58-2.11a2.79,2.79,0,0,1-.1-.57h0a2.53,2.53,0,0,1-.09.55l-.59,2.13Z"/><path class="cls-4" d="M77.17,195.43a3.5,3.5,0,0,1-2,.53,2.66,2.66,0,0,1-2.07-.84,3.33,3.33,0,0,1-.75-2.31,3.51,3.51,0,0,1,.82-2.41,2.83,2.83,0,0,1,2.21-.93,4,4,0,0,1,1.52.27v1.33a2.71,2.71,0,0,0-1.54-.42,1.54,1.54,0,0,0-1.24.57,2.3,2.3,0,0,0-.48,1.53,2.33,2.33,0,0,0,.43,1.5,1.59,1.59,0,0,0,1.86.38v-1.22H74.85v-1.13h2.32Z"/><path class="cls-4" d="M81.49,195.85H78.23v-6.28h3.13v1.15H79.45v1.4h1.78v1.15H79.45v1.44h2Z"/><path class="cls-4" d="M87.75,195.85H84.51v-6.28h1.22v5.14h2Z"/><path class="cls-4" d="M93.44,195.85H92.1l-.38-1.39H89.78l-.38,1.39H88.07l2-6.28H91.5Zm-2-2.48-.59-2.11a3.8,3.8,0,0,1-.09-.57h0a2.05,2.05,0,0,1-.1.55L90,193.37Z"/><path class="cls-4" d="M98.69,195.85H97.28l-.85-1.61a3.27,3.27,0,0,0-.18-.33,1.8,1.8,0,0,0-.18-.25.86.86,0,0,0-.18-.16.54.54,0,0,0-.21-.05h-.33v2.4H94.12v-6.28h1.94c1.32,0,2,.57,2,1.71a2,2,0,0,1-.09.61,1.8,1.8,0,0,1-.25.5,1.52,1.52,0,0,1-.38.38,1.75,1.75,0,0,1-.51.26v0a.75.75,0,0,1,.24.14,1.63,1.63,0,0,1,.22.23,2.83,2.83,0,0,1,.2.28c.07.1.12.2.18.3Zm-3.34-5.22v1.75h.53a.83.83,0,0,0,.63-.26,1,1,0,0,0,.24-.66.74.74,0,0,0-.85-.83Z"/><path class="cls-4" d="M103.59,195.43a3.44,3.44,0,0,1-2,.53,2.63,2.63,0,0,1-2.07-.84,3.28,3.28,0,0,1-.76-2.31,3.46,3.46,0,0,1,.83-2.41,2.79,2.79,0,0,1,2.2-.93,4,4,0,0,1,1.52.27v1.33a2.71,2.71,0,0,0-1.54-.42,1.54,1.54,0,0,0-1.24.57,2.3,2.3,0,0,0-.48,1.53,2.33,2.33,0,0,0,.43,1.5,1.44,1.44,0,0,0,1.16.53,1.37,1.37,0,0,0,.7-.15v-1.22h-1.09v-1.13h2.32Z"/><path class="cls-4" d="M107.91,195.85h-3.26v-6.28h3.14v1.15h-1.92v1.4h1.78v1.15h-1.78v1.44h2Z"/><path class="cls-4" d="M115.45,195.85h-1.54l-1.59-2.73a1.93,1.93,0,0,1-.14-.34h0v3.07h-1.23v-6.28h1.23v3h0c0-.08.08-.2.15-.35l1.5-2.62h1.46l-1.9,3Z"/><path class="cls-4" d="M119.24,195.85H116v-6.28h3.14v1.15H117.2v1.4H119v1.15H117.2v1.44h2Z"/><path class="cls-4" d="M124.22,189.57l-1.78,4.05v2.23h-1.22v-2.2l-1.73-4.08h1.4l.88,2.35.12.51h0a2.15,2.15,0,0,1,.12-.5l.89-2.36Z"/></g><g class="cls-3"><path class="cls-5" d="M64,215.43H62.66v-4c0-.42,0-.89.05-1.41h0a7.14,7.14,0,0,1-.19.88l-1.37,4.49H60L58.63,211c0-.12-.1-.43-.18-.92h0q.06,1,.06,1.71v3.66h-1.2v-6.61h1.94l1.2,3.92a5.29,5.29,0,0,1,.21.94h0c.07-.36.15-.68.23-1l1.2-3.91H64Z"/><path class="cls-5" d="M69.17,210.71l-1.7,5.1c-.41,1.23-1,1.84-1.85,1.84a2.13,2.13,0,0,1-.78-.12v-1.16a1,1,0,0,0,.56.17.71.71,0,0,0,.7-.53l.22-.59-1.7-4.71h1.43l.78,2.87a4.32,4.32,0,0,1,.12.64h0a5.31,5.31,0,0,1,.14-.63l.79-2.88Z"/><path class="cls-5" d="M75,215.43H73.54L73.13,214H71l-.42,1.47H69.19l2.14-6.61H72.9Zm-2.17-2.61-.63-2.23a3.78,3.78,0,0,1-.1-.59h0a3.07,3.07,0,0,1-.1.58l-.64,2.24Z"/><path class="cls-5" d="M81.54,210.71l-1.21,4.72H79l-.62-2.76a3.78,3.78,0,0,1-.07-.61h0a5.31,5.31,0,0,1-.08.59l-.67,2.78H76.17L75,210.71h1.32l.57,3.08a3.54,3.54,0,0,1,.06.53h0a3.55,3.55,0,0,1,.07-.55l.72-3.06H79l.64,3.08a4.12,4.12,0,0,1,.06.54h0a5,5,0,0,1,.07-.54l.54-3.08Z"/><path class="cls-5" d="M85.88,213.49H83.15a1,1,0,0,0,1.15,1,2.12,2.12,0,0,0,1.22-.37v1a3,3,0,0,1-1.52.35,2,2,0,0,1-1.57-.64,2.54,2.54,0,0,1-.56-1.77,2.74,2.74,0,0,1,.6-1.86,1.91,1.91,0,0,1,1.49-.69,1.72,1.72,0,0,1,1.42.62,2.51,2.51,0,0,1,.5,1.66Zm-1.2-.9c0-.68-.24-1-.72-1a.65.65,0,0,0-.54.29,1.29,1.29,0,0,0-.28.72Z"/><path class="cls-5" d="M86.38,215.31v-1.18a2.73,2.73,0,0,0,.64.32,1.91,1.91,0,0,0,.6.11,1.15,1.15,0,0,0,.54-.11.35.35,0,0,0,.2-.32.32.32,0,0,0-.09-.23.79.79,0,0,0-.23-.16l-.31-.13-.32-.12a2.56,2.56,0,0,1-.44-.23,1.12,1.12,0,0,1-.32-.29,1,1,0,0,1-.2-.37,1.51,1.51,0,0,1-.07-.5,1.49,1.49,0,0,1,.15-.69,1.4,1.4,0,0,1,.41-.46,1.88,1.88,0,0,1,.59-.27,2.61,2.61,0,0,1,.69-.09,3.64,3.64,0,0,1,.56,0,4,4,0,0,1,.57.14v1.13a1.81,1.81,0,0,0-.53-.24,1.79,1.79,0,0,0-.55-.08,1,1,0,0,0-.24,0l-.2.07a.4.4,0,0,0-.13.13.26.26,0,0,0,0,.17.32.32,0,0,0,.07.22.49.49,0,0,0,.19.16,1.11,1.11,0,0,0,.27.12l.29.11a4,4,0,0,1,.46.22,1.72,1.72,0,0,1,.36.28,1.14,1.14,0,0,1,.23.38,1.62,1.62,0,0,1,.08.52,1.47,1.47,0,0,1-.16.72,1.33,1.33,0,0,1-.43.48,1.65,1.65,0,0,1-.62.27,2.92,2.92,0,0,1-.73.09A3.35,3.35,0,0,1,86.38,215.31Z"/><path class="cls-5" d="M92.35,215.55a2.12,2.12,0,0,1-1.65-.66,2.58,2.58,0,0,1-.6-1.8,2.54,2.54,0,0,1,.62-1.83,2.19,2.19,0,0,1,1.68-.67,2.06,2.06,0,0,1,1.64.67,2.5,2.5,0,0,1,.6,1.75,2.7,2.7,0,0,1-.62,1.86A2.13,2.13,0,0,1,92.35,215.55Zm0-3.84a.81.81,0,0,0-.71.36,1.68,1.68,0,0,0-.26,1c0,.91.33,1.36,1,1.36s.93-.46.93-1.4S93,211.71,92.38,211.71Z"/><path class="cls-5" d="M102.14,215.43h-1.29v-2.69c0-.69-.23-1-.67-1a.58.58,0,0,0-.52.31,1.34,1.34,0,0,0-.2.77v2.64h-1.3v-2.72c0-.67-.22-1-.66-1a.61.61,0,0,0-.53.3,1.41,1.41,0,0,0-.2.8v2.62H95.48v-4.72h1.29v.74h0a1.67,1.67,0,0,1,.56-.62,1.41,1.41,0,0,1,.79-.24,1.22,1.22,0,0,1,1.22.88,1.54,1.54,0,0,1,1.41-.88c.91,0,1.37.64,1.37,1.9Z"/><path class="cls-5" d="M106.93,213.49H104.2a1,1,0,0,0,1.15,1,2.09,2.09,0,0,0,1.21-.37v1a2.91,2.91,0,0,1-1.51.35,2,2,0,0,1-1.58-.64,2.59,2.59,0,0,1-.56-1.77,2.74,2.74,0,0,1,.61-1.86,1.9,1.9,0,0,1,1.49-.69,1.73,1.73,0,0,1,1.42.62,2.51,2.51,0,0,1,.5,1.66Zm-1.2-.9c0-.68-.24-1-.73-1a.68.68,0,0,0-.54.29,1.36,1.36,0,0,0-.27.72Z"/><path class="cls-5" d="M113,215.43h-1.45l-.41-1.47h-2.09l-.42,1.47H107.2l2.14-6.61h1.57Zm-2.17-2.61-.63-2.23a3.78,3.78,0,0,1-.1-.59h0a3.07,3.07,0,0,1-.1.58l-.64,2.24Z"/><path class="cls-5" d="M117.41,210.71l-1.56,4.72h-1.47l-1.49-4.72h1.39l.72,2.91a4.69,4.69,0,0,1,.15.84h0a4.57,4.57,0,0,1,.16-.81l.74-2.94Z"/><path class="cls-5" d="M121.33,215.43h-1.22v-.67h0a1.36,1.36,0,0,1-1.25.79,1.21,1.21,0,0,1-1-.39,1.52,1.52,0,0,1-.35-1,1.47,1.47,0,0,1,1.44-1.59l1.14-.17c0-.52-.24-.77-.74-.77a2.33,2.33,0,0,0-1.43.5V211a3.2,3.2,0,0,1,.74-.28,3.48,3.48,0,0,1,.86-.12c1.19,0,1.79.68,1.79,2Zm-1.22-1.92v-.31l-.76.11c-.42.06-.63.27-.63.64a.59.59,0,0,0,.15.41.61.61,0,0,0,.42.16.72.72,0,0,0,.59-.29A1.07,1.07,0,0,0,120.11,213.51Z"/><path class="cls-5" d="M124.89,215.38a1.76,1.76,0,0,1-.86.17c-.92,0-1.37-.53-1.37-1.6v-2.17H122v-1.07h.68v-1l1.29-.42v1.44h.94v1.07H124v1.91c0,.5.17.74.52.74a.76.76,0,0,0,.42-.13Z"/><path class="cls-5" d="M129.11,215.43h-1.22v-.67h0a1.36,1.36,0,0,1-1.25.79,1.21,1.21,0,0,1-1-.39,1.52,1.52,0,0,1-.35-1,1.47,1.47,0,0,1,1.45-1.59l1.13-.17c0-.52-.24-.77-.74-.77a2.33,2.33,0,0,0-1.43.5V211a3.2,3.2,0,0,1,.74-.28,3.54,3.54,0,0,1,.86-.12c1.19,0,1.79.68,1.79,2Zm-1.22-1.92v-.31l-.76.11c-.42.06-.63.27-.63.64a.56.56,0,0,0,.16.41.57.57,0,0,0,.41.16.76.76,0,0,0,.6-.29A1.12,1.12,0,0,0,127.89,213.51Z"/><path class="cls-5" d="M132.87,212a1,1,0,0,0-.54-.14.77.77,0,0,0-.66.35,1.65,1.65,0,0,0-.24,1v2.25h-1.29v-4.72h1.29v.88h0c.2-.64.57-1,1.1-1a.69.69,0,0,1,.32.05Z"/></g><path class="cls-2" d="M184.2,290.8H52.1a1.9,1.9,0,0,1-1.9-1.9V268a1.9,1.9,0,0,1,1.9-1.9H184.2a1.9,1.9,0,0,1,1.9,1.9v20.9A2,2,0,0,1,184.2,290.8Z"/><g class="cls-3"><path class="cls-4" d="M58.63,261.9H57.4v-6.28h1.23Z"/><path class="cls-4" d="M66.07,261.9H64.86v-3.76c0-.41,0-.86,0-1.35h0a7,7,0,0,1-.17.84l-1.27,4.27h-1l-1.3-4.23a6,6,0,0,1-.17-.88h0c0,.62,0,1.17,0,1.63v3.48h-1.1v-6.28h1.79l1.11,3.72a5.81,5.81,0,0,1,.2.9h0c.07-.35.14-.65.22-.91l1.11-3.71h1.75Z"/><path class="cls-4" d="M72.09,261.9H70.76l-.39-1.4H68.43l-.38,1.4H66.72l2-6.28h1.46Zm-2-2.49-.58-2.11a2.69,2.69,0,0,1-.1-.56h0a2.54,2.54,0,0,1-.09.54l-.59,2.13Z"/><path class="cls-4" d="M77.17,261.48a3.58,3.58,0,0,1-2,.53,2.66,2.66,0,0,1-2.07-.84,3.34,3.34,0,0,1-.75-2.31,3.53,3.53,0,0,1,.82-2.42,2.83,2.83,0,0,1,2.21-.93,3.82,3.82,0,0,1,1.52.28v1.32a2.71,2.71,0,0,0-1.54-.42,1.52,1.52,0,0,0-1.24.58,2.73,2.73,0,0,0,0,3,1.41,1.41,0,0,0,1.16.53,1.52,1.52,0,0,0,.7-.14v-1.23H74.85v-1.13h2.32Z"/><path class="cls-4" d="M81.49,261.9H78.23v-6.28h3.13v1.15H79.45v1.4h1.78v1.14H79.45v1.44h2Z"/><path class="cls-4" d="M87.75,261.9H84.51v-6.28h1.22v5.13h2Z"/><path class="cls-4" d="M93.44,261.9H92.1l-.38-1.4H89.78l-.38,1.4H88.07l2-6.28H91.5Zm-2-2.49-.59-2.11a3.65,3.65,0,0,1-.09-.56h0a2.05,2.05,0,0,1-.1.54L90,259.41Z"/><path class="cls-4" d="M98.69,261.9H97.28l-.85-1.62-.18-.33a2.7,2.7,0,0,0-.18-.25.8.8,0,0,0-.18-.15.42.42,0,0,0-.21-.06h-.33v2.41H94.12v-6.28h1.94c1.32,0,2,.57,2,1.7a2,2,0,0,1-.09.61,1.67,1.67,0,0,1-.25.5,1.76,1.76,0,0,1-.38.39,1.73,1.73,0,0,1-.51.25v0a1,1,0,0,1,.24.14,2.44,2.44,0,0,1,.22.23,2.83,2.83,0,0,1,.2.28l.18.3Zm-3.34-5.22v1.74h.53a.79.79,0,0,0,.63-.26,1,1,0,0,0,.24-.66c0-.55-.28-.82-.85-.82Z"/><path class="cls-4" d="M103.59,261.48a3.52,3.52,0,0,1-2,.53,2.63,2.63,0,0,1-2.07-.84,3.3,3.3,0,0,1-.76-2.31,3.49,3.49,0,0,1,.83-2.42,2.79,2.79,0,0,1,2.2-.93,3.82,3.82,0,0,1,1.52.28v1.32a2.71,2.71,0,0,0-1.54-.42,1.52,1.52,0,0,0-1.24.58,2.73,2.73,0,0,0,0,3,1.44,1.44,0,0,0,1.16.53,1.5,1.5,0,0,0,.7-.14v-1.23h-1.09v-1.13h2.32Z"/><path class="cls-4" d="M107.91,261.9h-3.26v-6.28h3.14v1.15h-1.92v1.4h1.78v1.14h-1.78v1.44h2Z"/><path class="cls-4" d="M115.45,261.9h-1.54l-1.59-2.73a2.16,2.16,0,0,1-.14-.35h0v3.08h-1.23v-6.28h1.23v3h0a3.61,3.61,0,0,1,.15-.35l1.5-2.62h1.46l-1.9,3Z"/><path class="cls-4" d="M119.24,261.9H116v-6.28h3.14v1.15H117.2v1.4H119v1.14H117.2v1.44h2Z"/><path class="cls-4" d="M124.22,255.62l-1.78,4v2.24h-1.22v-2.21l-1.73-4.07h1.4l.88,2.34.12.51h0A2.05,2.05,0,0,1,122,258l.89-2.36Z"/></g><g class="cls-3"><path class="cls-5" d="M64,281.48H62.66v-4c0-.43,0-.9.05-1.42h0a6.73,6.73,0,0,1-.19.88l-1.37,4.5H60L58.63,277c0-.12-.1-.42-.18-.92h0c0,.65.06,1.23.06,1.72v3.66h-1.2v-6.62h1.94l1.2,3.92a5.4,5.4,0,0,1,.21,1h0a9.79,9.79,0,0,1,.23-1l1.2-3.91H64Z"/><path class="cls-5" d="M69.17,276.75l-1.7,5.1c-.41,1.23-1,1.85-1.85,1.85a2.13,2.13,0,0,1-.78-.12v-1.17a1,1,0,0,0,.56.17.7.7,0,0,0,.7-.53l.22-.58-1.7-4.72h1.43l.78,2.88a4.43,4.43,0,0,1,.12.63h0a4.79,4.79,0,0,1,.14-.62l.79-2.89Z"/><path class="cls-5" d="M75,281.48H73.54L73.13,280H71l-.42,1.47H69.19l2.14-6.62H72.9Zm-2.17-2.62-.63-2.22a4.15,4.15,0,0,1-.1-.6h0a2.82,2.82,0,0,1-.1.58l-.64,2.24Z"/><path class="cls-5" d="M81.54,276.75l-1.21,4.73H79l-.62-2.77a3.78,3.78,0,0,1-.07-.61h0a5.31,5.31,0,0,1-.08.59l-.67,2.79H76.17L75,276.75h1.32l.57,3.08a3.54,3.54,0,0,1,.06.53h0a3.4,3.4,0,0,1,.07-.54l.72-3.07H79l.64,3.08a4.12,4.12,0,0,1,.06.54h0a5,5,0,0,1,.07-.54l.54-3.08Z"/><path class="cls-5" d="M85.88,279.53H83.15a1,1,0,0,0,1.15,1,2,2,0,0,0,1.22-.37v1.05a2.88,2.88,0,0,1-1.52.35,2,2,0,0,1-1.57-.63,2.58,2.58,0,0,1-.56-1.77,2.75,2.75,0,0,1,.6-1.87,1.94,1.94,0,0,1,1.49-.68,1.71,1.71,0,0,1,1.42.61,2.54,2.54,0,0,1,.5,1.67Zm-1.2-.89q0-1-.72-1a.68.68,0,0,0-.54.29,1.32,1.32,0,0,0-.28.73Z"/><path class="cls-5" d="M86.38,281.35v-1.18a2.4,2.4,0,0,0,.64.32,1.91,1.91,0,0,0,.6.11,1.15,1.15,0,0,0,.54-.11.34.34,0,0,0,.2-.32.32.32,0,0,0-.09-.23,1,1,0,0,0-.23-.16l-.31-.13a1.75,1.75,0,0,1-.32-.12,2.56,2.56,0,0,1-.44-.23,1.1,1.1,0,0,1-.32-.28,1,1,0,0,1-.2-.38,1.47,1.47,0,0,1-.07-.5,1.33,1.33,0,0,1,.56-1.15,1.88,1.88,0,0,1,.59-.27,3.1,3.1,0,0,1,.69-.08,2.71,2.71,0,0,1,.56.05,4,4,0,0,1,.57.14V278a2.11,2.11,0,0,0-.53-.24,2.15,2.15,0,0,0-.55-.08l-.24,0a.93.93,0,0,0-.2.08.3.3,0,0,0-.13.12.27.27,0,0,0,0,.18.34.34,0,0,0,.07.22.77.77,0,0,0,.19.16l.27.12.29.11a2.8,2.8,0,0,1,.46.22,1.45,1.45,0,0,1,.36.28,1,1,0,0,1,.23.38,1.52,1.52,0,0,1,.08.51,1.47,1.47,0,0,1-.16.72,1.33,1.33,0,0,1-.43.48,1.84,1.84,0,0,1-.62.28,3.47,3.47,0,0,1-.73.08A3.35,3.35,0,0,1,86.38,281.35Z"/><path class="cls-5" d="M92.35,281.59a2.12,2.12,0,0,1-1.65-.66,2.58,2.58,0,0,1-.6-1.8,2.54,2.54,0,0,1,.62-1.83,2.21,2.21,0,0,1,1.68-.66,2.08,2.08,0,0,1,1.64.66,2.5,2.5,0,0,1,.6,1.75,2.7,2.7,0,0,1-.62,1.86A2.13,2.13,0,0,1,92.35,281.59Zm0-3.84a.81.81,0,0,0-.71.36,1.7,1.7,0,0,0-.26,1c0,.91.33,1.37,1,1.37s.93-.47.93-1.4S93,277.75,92.38,277.75Z"/><path class="cls-5" d="M102.14,281.48h-1.29v-2.7c0-.68-.23-1-.67-1a.6.6,0,0,0-.52.31,1.36,1.36,0,0,0-.2.77v2.65h-1.3v-2.72c0-.67-.22-1-.66-1a.61.61,0,0,0-.53.3,1.43,1.43,0,0,0-.2.8v2.63H95.48v-4.73h1.29v.74h0a1.67,1.67,0,0,1,.56-.62,1.48,1.48,0,0,1,.79-.23,1.21,1.21,0,0,1,1.22.88,1.52,1.52,0,0,1,1.41-.88c.91,0,1.37.63,1.37,1.9Z"/><path class="cls-5" d="M106.93,279.53H104.2a1,1,0,0,0,1.15,1,2,2,0,0,0,1.21-.37v1.05a2.81,2.81,0,0,1-1.51.35,2,2,0,0,1-1.58-.63,2.63,2.63,0,0,1-.56-1.77,2.75,2.75,0,0,1,.61-1.87,1.92,1.92,0,0,1,1.49-.68,1.72,1.72,0,0,1,1.42.61,2.54,2.54,0,0,1,.5,1.67Zm-1.2-.89c0-.68-.24-1-.73-1a.7.7,0,0,0-.54.29,1.4,1.4,0,0,0-.27.73Z"/><path class="cls-5" d="M113,281.48h-1.45l-.41-1.47h-2.09l-.42,1.47H107.2l2.14-6.62h1.57Zm-2.17-2.62-.63-2.22a4.15,4.15,0,0,1-.1-.6h0a2.82,2.82,0,0,1-.1.58l-.64,2.24Z"/><path class="cls-5" d="M117.41,276.75l-1.56,4.73h-1.47l-1.49-4.73h1.39l.72,2.91a4.69,4.69,0,0,1,.15.84h0a4.75,4.75,0,0,1,.16-.81l.74-2.94Z"/><path class="cls-5" d="M121.33,281.48h-1.22v-.68h0a1.34,1.34,0,0,1-1.25.79,1.21,1.21,0,0,1-1-.39,1.5,1.5,0,0,1-.35-1,1.47,1.47,0,0,1,1.44-1.58l1.14-.18c0-.51-.24-.77-.74-.77a2.39,2.39,0,0,0-1.43.5V277a3.24,3.24,0,0,1,.74-.27,3.48,3.48,0,0,1,.86-.12c1.19,0,1.79.67,1.79,2Zm-1.22-1.92v-.32l-.76.11c-.42.06-.63.28-.63.64a.58.58,0,0,0,.15.41.57.57,0,0,0,.42.16.72.72,0,0,0,.59-.29A1,1,0,0,0,120.11,279.56Z"/><path class="cls-5" d="M124.89,281.42a1.66,1.66,0,0,1-.86.17c-.92,0-1.37-.53-1.37-1.6v-2.16H122v-1.08h.68v-1l1.29-.41v1.43h.94v1.08H124v1.91c0,.49.17.74.52.74a.78.78,0,0,0,.42-.14Z"/><path class="cls-5" d="M129.11,281.48h-1.22v-.68h0a1.34,1.34,0,0,1-1.25.79,1.21,1.21,0,0,1-1-.39,1.5,1.5,0,0,1-.35-1,1.47,1.47,0,0,1,1.45-1.58l1.13-.18c0-.51-.24-.77-.74-.77a2.39,2.39,0,0,0-1.43.5V277a3.24,3.24,0,0,1,.74-.27,3.54,3.54,0,0,1,.86-.12c1.19,0,1.79.67,1.79,2Zm-1.22-1.92v-.32l-.76.11c-.42.06-.63.28-.63.64a.54.54,0,0,0,.16.41.53.53,0,0,0,.41.16.76.76,0,0,0,.6-.29A1.08,1.08,0,0,0,127.89,279.56Z"/><path class="cls-5" d="M132.87,278.07a1,1,0,0,0-.54-.14.76.76,0,0,0-.66.34,1.67,1.67,0,0,0-.24,1v2.26h-1.29v-4.73h1.29v.88h0c.2-.64.57-1,1.1-1a.85.85,0,0,1,.32.05Z"/></g><path class="cls-2" d="M184.2,373.5H52.1a1.9,1.9,0,0,1-1.9-1.9V350.7a1.9,1.9,0,0,1,1.9-1.9H184.2a1.9,1.9,0,0,1,1.9,1.9v20.9A2,2,0,0,1,184.2,373.5Z"/><g class="cls-3"><path class="cls-4" d="M58.63,344.63H57.4v-6.28h1.23Z"/><path class="cls-4" d="M66.07,344.63H64.86v-3.76c0-.4,0-.85,0-1.34h0a7.15,7.15,0,0,1-.17.83l-1.27,4.27h-1l-1.3-4.23a6,6,0,0,1-.17-.87h0c0,.61,0,1.16,0,1.63v3.47h-1.1v-6.28h1.79l1.11,3.72a5.81,5.81,0,0,1,.2.9h0c.07-.35.14-.65.22-.91l1.11-3.71h1.75Z"/><path class="cls-4" d="M72.09,344.63H70.76l-.39-1.4H68.43l-.38,1.4H66.72l2-6.28h1.46Zm-2-2.49L69.51,340a2.57,2.57,0,0,1-.1-.56h0a2.63,2.63,0,0,1-.09.55l-.59,2.12Z"/><path class="cls-4" d="M77.17,344.21a3.58,3.58,0,0,1-2,.53,2.66,2.66,0,0,1-2.07-.84,3.34,3.34,0,0,1-.75-2.31,3.49,3.49,0,0,1,.82-2.41,2.8,2.8,0,0,1,2.21-.94,3.82,3.82,0,0,1,1.52.28v1.33a2.71,2.71,0,0,0-1.54-.42,1.54,1.54,0,0,0-1.24.57,2.73,2.73,0,0,0,0,3,1.41,1.41,0,0,0,1.16.53,1.52,1.52,0,0,0,.7-.14v-1.23H74.85v-1.13h2.32Z"/><path class="cls-4" d="M81.49,344.63H78.23v-6.28h3.13v1.15H79.45v1.4h1.78V342H79.45v1.44h2Z"/><path class="cls-4" d="M87.75,344.63H84.51v-6.28h1.22v5.13h2Z"/><path class="cls-4" d="M93.44,344.63H92.1l-.38-1.4H89.78l-.38,1.4H88.07l2-6.28H91.5Zm-2-2.49L90.85,340a3.45,3.45,0,0,1-.09-.56h0a2.13,2.13,0,0,1-.1.55L90,342.14Z"/><path class="cls-4" d="M98.69,344.63H97.28L96.43,343q-.09-.18-.18-.33a2.5,2.5,0,0,0-.18-.24.65.65,0,0,0-.18-.16.42.42,0,0,0-.21-.06h-.33v2.41H94.12v-6.28h1.94c1.32,0,2,.57,2,1.71a1.93,1.93,0,0,1-.09.6,1.56,1.56,0,0,1-.25.5,1.76,1.76,0,0,1-.38.39,1.73,1.73,0,0,1-.51.25v0a1,1,0,0,1,.24.14l.22.23a3,3,0,0,1,.2.29c.07.1.12.2.18.29Zm-3.34-5.22v1.75h.53a.8.8,0,0,0,.63-.27,1,1,0,0,0,.24-.66c0-.55-.28-.82-.85-.82Z"/><path class="cls-4" d="M103.59,344.21a3.52,3.52,0,0,1-2,.53,2.63,2.63,0,0,1-2.07-.84,3.3,3.3,0,0,1-.76-2.31,3.45,3.45,0,0,1,.83-2.41,2.77,2.77,0,0,1,2.2-.94,3.82,3.82,0,0,1,1.52.28v1.33a2.71,2.71,0,0,0-1.54-.42,1.54,1.54,0,0,0-1.24.57,2.73,2.73,0,0,0,0,3,1.44,1.44,0,0,0,1.16.53,1.5,1.5,0,0,0,.7-.14v-1.23h-1.09v-1.13h2.32Z"/><path class="cls-4" d="M107.91,344.63h-3.26v-6.28h3.14v1.15h-1.92v1.4h1.78V342h-1.78v1.44h2Z"/><path class="cls-4" d="M115.45,344.63h-1.54l-1.59-2.73a2.16,2.16,0,0,1-.14-.35h0v3.08h-1.23v-6.28h1.23v3h0c0-.08.08-.2.15-.35l1.5-2.62h1.46l-1.9,3Z"/><path class="cls-4" d="M119.24,344.63H116v-6.28h3.14v1.15H117.2v1.4H119V342H117.2v1.44h2Z"/><path class="cls-4" d="M124.22,338.35l-1.78,4v2.24h-1.22v-2.21l-1.73-4.07h1.4l.88,2.34.12.51h0a2.05,2.05,0,0,1,.12-.49l.89-2.36Z"/></g><g class="cls-3"><path class="cls-5" d="M64,364.21H62.66v-4c0-.43,0-.9.05-1.42h0a6.73,6.73,0,0,1-.19.88l-1.37,4.5H60l-1.41-4.45c0-.12-.1-.43-.18-.93h0c0,.66.06,1.23.06,1.72v3.66h-1.2v-6.62h1.94l1.2,3.92a5.4,5.4,0,0,1,.21.95h0a9.53,9.53,0,0,1,.23-.95l1.2-3.92H64Z"/><path class="cls-5" d="M69.17,359.48l-1.7,5.11c-.41,1.22-1,1.84-1.85,1.84a2.13,2.13,0,0,1-.78-.12v-1.17a1,1,0,0,0,.56.18.71.71,0,0,0,.7-.53l.22-.59-1.7-4.72h1.43l.78,2.88A4.43,4.43,0,0,1,67,363h0a4.79,4.79,0,0,1,.14-.62l.79-2.89Z"/><path class="cls-5" d="M75,364.21H73.54l-.41-1.47H71l-.42,1.47H69.19l2.14-6.62H72.9Zm-2.17-2.62-.63-2.22a4.15,4.15,0,0,1-.1-.6h0a2.82,2.82,0,0,1-.1.58l-.64,2.24Z"/><path class="cls-5" d="M81.54,359.48l-1.21,4.73H79l-.62-2.77a3.66,3.66,0,0,1-.07-.6h0a5.09,5.09,0,0,1-.08.58l-.67,2.79H76.17L75,359.48h1.32l.57,3.09a3.4,3.4,0,0,1,.06.52h0a3.4,3.4,0,0,1,.07-.54l.72-3.07H79l.64,3.09a3.67,3.67,0,0,1,.06.53h0a4.51,4.51,0,0,1,.07-.53l.54-3.09Z"/><path class="cls-5" d="M85.88,362.26H83.15a1,1,0,0,0,1.15,1,2,2,0,0,0,1.22-.37V364a2.88,2.88,0,0,1-1.52.35,2,2,0,0,1-1.57-.63,2.54,2.54,0,0,1-.56-1.77,2.72,2.72,0,0,1,.6-1.86,1.91,1.91,0,0,1,1.49-.69,1.71,1.71,0,0,1,1.42.61,2.54,2.54,0,0,1,.5,1.67Zm-1.2-.89q0-1-.72-1a.68.68,0,0,0-.54.29,1.35,1.35,0,0,0-.28.73Z"/><path class="cls-5" d="M86.38,364.08V362.9a2.79,2.79,0,0,0,.64.33,1.89,1.89,0,0,0,.6.1,1.16,1.16,0,0,0,.54-.1.36.36,0,0,0,.2-.33.32.32,0,0,0-.09-.23,1,1,0,0,0-.23-.16,1.66,1.66,0,0,0-.31-.12l-.32-.13A2.56,2.56,0,0,1,87,362a1.1,1.1,0,0,1-.32-.28,1,1,0,0,1-.2-.37,1.57,1.57,0,0,1-.07-.51,1.33,1.33,0,0,1,.56-1.15,1.88,1.88,0,0,1,.59-.27,3.1,3.1,0,0,1,.69-.08,3.64,3.64,0,0,1,.56.05,4,4,0,0,1,.57.14v1.12a2.53,2.53,0,0,0-.53-.24,2.15,2.15,0,0,0-.55-.08l-.24,0a.59.59,0,0,0-.2.07.3.3,0,0,0-.13.12.29.29,0,0,0,0,.18.34.34,0,0,0,.07.22.77.77,0,0,0,.19.16l.27.12.29.11a2.8,2.8,0,0,1,.46.22,1.45,1.45,0,0,1,.36.28,1,1,0,0,1,.23.38,1.52,1.52,0,0,1,.08.51,1.47,1.47,0,0,1-.16.72A1.45,1.45,0,0,1,89,364a2,2,0,0,1-.62.27,2.92,2.92,0,0,1-.73.08A3.35,3.35,0,0,1,86.38,364.08Z"/><path class="cls-5" d="M92.35,364.32a2.12,2.12,0,0,1-1.65-.66,2.58,2.58,0,0,1-.6-1.8,2.54,2.54,0,0,1,.62-1.83,2.21,2.21,0,0,1,1.68-.66A2.08,2.08,0,0,1,94,360a2.51,2.51,0,0,1,.6,1.75,2.66,2.66,0,0,1-.62,1.86A2.09,2.09,0,0,1,92.35,364.32Zm0-3.84a.81.81,0,0,0-.71.36,1.71,1.71,0,0,0-.26,1c0,.9.33,1.36,1,1.36s.93-.47.93-1.4S93,360.48,92.38,360.48Z"/><path class="cls-5" d="M102.14,364.21h-1.29v-2.7c0-.68-.23-1-.67-1a.6.6,0,0,0-.52.31,1.36,1.36,0,0,0-.2.77v2.65h-1.3v-2.72c0-.67-.22-1-.66-1a.61.61,0,0,0-.53.3,1.43,1.43,0,0,0-.2.8v2.63H95.48v-4.73h1.29v.74h0a1.64,1.64,0,0,1,.56-.61,1.41,1.41,0,0,1,.79-.24,1.21,1.21,0,0,1,1.22.88,1.52,1.52,0,0,1,1.41-.88c.91,0,1.37.63,1.37,1.9Z"/><path class="cls-5" d="M106.93,362.26H104.2a1,1,0,0,0,1.15,1,2,2,0,0,0,1.21-.37V364a2.81,2.81,0,0,1-1.51.35,2,2,0,0,1-1.58-.63,2.59,2.59,0,0,1-.56-1.77,2.72,2.72,0,0,1,.61-1.86,1.9,1.9,0,0,1,1.49-.69,1.72,1.72,0,0,1,1.42.61,2.54,2.54,0,0,1,.5,1.67Zm-1.2-.89c0-.68-.24-1-.73-1a.7.7,0,0,0-.54.29,1.43,1.43,0,0,0-.27.73Z"/><path class="cls-5" d="M113,364.21h-1.45l-.41-1.47h-2.09l-.42,1.47H107.2l2.14-6.62h1.57Zm-2.17-2.62-.63-2.22a4.15,4.15,0,0,1-.1-.6h0a2.82,2.82,0,0,1-.1.58l-.64,2.24Z"/><path class="cls-5" d="M117.41,359.48l-1.56,4.73h-1.47l-1.49-4.73h1.39l.72,2.91a4.69,4.69,0,0,1,.15.84h0a4.94,4.94,0,0,1,.16-.81l.74-2.94Z"/><path class="cls-5" d="M121.33,364.21h-1.22v-.68h0a1.34,1.34,0,0,1-1.25.79,1.21,1.21,0,0,1-1-.39,1.5,1.5,0,0,1-.35-1,1.47,1.47,0,0,1,1.44-1.58l1.14-.17c0-.52-.24-.78-.74-.78a2.39,2.39,0,0,0-1.43.5v-1.09a2.8,2.8,0,0,1,.74-.28,3.48,3.48,0,0,1,.86-.12c1.19,0,1.79.67,1.79,2Zm-1.22-1.92V362l-.76.11c-.42.06-.63.28-.63.64a.58.58,0,0,0,.15.41.57.57,0,0,0,.42.16.72.72,0,0,0,.59-.28A1.07,1.07,0,0,0,120.11,362.29Z"/><path class="cls-5" d="M124.89,364.15a1.66,1.66,0,0,1-.86.17c-.92,0-1.37-.53-1.37-1.6v-2.16H122v-1.08h.68v-1l1.29-.41v1.43h.94v1.08H124v1.91c0,.49.17.74.52.74a.78.78,0,0,0,.42-.14Z"/><path class="cls-5" d="M129.11,364.21h-1.22v-.68h0a1.34,1.34,0,0,1-1.25.79,1.21,1.21,0,0,1-1-.39,1.5,1.5,0,0,1-.35-1,1.47,1.47,0,0,1,1.45-1.58l1.13-.17c0-.52-.24-.78-.74-.78a2.39,2.39,0,0,0-1.43.5v-1.09a2.8,2.8,0,0,1,.74-.28,3.54,3.54,0,0,1,.86-.12c1.19,0,1.79.67,1.79,2Zm-1.22-1.92V362l-.76.11c-.42.06-.63.28-.63.64a.54.54,0,0,0,.16.41.53.53,0,0,0,.41.16.75.75,0,0,0,.6-.28A1.12,1.12,0,0,0,127.89,362.29Z"/><path class="cls-5" d="M132.87,360.8a1,1,0,0,0-.54-.14.76.76,0,0,0-.66.34,1.67,1.67,0,0,0-.24.95v2.26h-1.29v-4.73h1.29v.88h0c.2-.64.57-1,1.1-1a.67.67,0,0,1,.32.06Z"/></g><path class="cls-6" d="M610.5,407H203.2a2.26,2.26,0,0,1-2.3-2.3V30.4a2.26,2.26,0,0,1,2.3-2.3H610.5a2.26,2.26,0,0,1,2.3,2.3V404.7A2.26,2.26,0,0,1,610.5,407Z"/><path d="M610.5,62H203.2a2.26,2.26,0,0,1-2.3-2.3V30.4a2.26,2.26,0,0,1,2.3-2.3H610.5a2.26,2.26,0,0,1,2.3,2.3V59.7A2.26,2.26,0,0,1,610.5,62Z"/><path class="cls-7" d="M272.1,77.8a25.3,25.3,0,1,0,25.2,25.3,25.18,25.18,0,0,0-25.2-25.3"/><rect class="cls-8" x="234" y="258.9" width="344.6" height="138.1"/><rect class="cls-9" x="234.1" y="139.3" width="344.5" height="119.6"/><rect class="cls-10" x="234.1" y="228.4" width="345" height="0.7"/><path class="cls-11" d="M578.6,139.3H234.1V71.4a5.55,5.55,0,0,1,5.5-5.5H573.1a5.55,5.55,0,0,1,5.5,5.5Z"/><path class="cls-7" d="M272.1,77.8a25.3,25.3,0,1,0,25.2,25.3,25.18,25.18,0,0,0-25.2-25.3"/><path class="cls-11" d="M290.5,115.6a5.93,5.93,0,0,0-5.9,6,6,6,0,0,0,5.9,6,5.93,5.93,0,0,0,5.9-6,5.87,5.87,0,0,0-5.9-6"/><path class="cls-12" d="M290.5,116.7a4.82,4.82,0,0,0-4.8,4.9,4.89,4.89,0,0,0,4.8,4.9,4.82,4.82,0,0,0,4.8-4.9,4.76,4.76,0,0,0-4.8-4.9"/><path class="cls-13" d="M297,193.6a25.33,25.33,0,0,1-5,15.1l-1.1,1.4a28.34,28.34,0,0,1-2.4,2.5c-.1.1-.2.1-.2.2a25.39,25.39,0,0,1-16.7,6.3,26.19,26.19,0,0,1-9.7-1.9,23,23,0,0,1-7-4.4,25.2,25.2,0,0,1-8.7-19.2,25.54,25.54,0,0,1,13.2-22.3c.1-.1.2-.1.3-.2h.1a25.74,25.74,0,0,1,11.8-2.9,26.26,26.26,0,0,1,4.9.5h.2a23.76,23.76,0,0,1,3.8,1.1h.1c.2.1.3.1.5.2s.5.2.7.3A25.39,25.39,0,0,1,297,193.6Z"/><path class="cls-13" d="M285.8,205.6c5.2.9,5.7,1.9,7.1,4.7l-5.6-.6Z"/><path class="cls-14" d="M259.3,171.2c1.4,5.8,2.8,11.6,4.3,17.4,3.1-.6,6.2-1.3,9.3-1.9-1.8-6.1-3.5-12.2-5.3-18.3a22.67,22.67,0,0,0-4.3,1.1C261.7,170.1,260.4,170.7,259.3,171.2Z"/><path class="cls-15" d="M266.5,183.6l3.7-.2-3.9-12.7c-.1-.2-.1-.4-.3-.5l-.4-.4a1.09,1.09,0,0,0-.5-.1,1.27,1.27,0,0,0-.6.1,1.06,1.06,0,0,0-.7.6,1.15,1.15,0,0,0-.1,1Z"/><path class="cls-14" d="M284.6,171.7c-1.3,5.6-2.6,11.2-3.9,16.7l-9.3-1.8c1.7-6,3.4-12.1,5.1-18.1a34.48,34.48,0,0,1,4.5,1.4Z"/><path class="cls-15" d="M279.2,183.6l-3.6-.1,3.7-12.8c.1-.2.1-.4.3-.5s.3-.3.4-.3a1.09,1.09,0,0,1,.5-.1,1.27,1.27,0,0,1,.6.1,1.06,1.06,0,0,1,.7.6,1.15,1.15,0,0,1,.1,1Z"/><path class="cls-16" d="M254.9,212.8a28.44,28.44,0,0,0,7,4.4,25.8,25.8,0,0,0,9.7,1.9,25.39,25.39,0,0,0,16.7-6.3c.1-.1.2-.1.2-.2"/><path class="cls-13" d="M288.5,212.5c-.1.1-.2.1-.2.2a25.39,25.39,0,0,1-16.7,6.3,26.19,26.19,0,0,1-9.7-1.9,23,23,0,0,1-7-4.4,20.77,20.77,0,0,1,2.1-2.2c.9-.8,1.2-1.1,2.1-2l.1-.1.1-.1.2-.2.2-.2.2-.2.9-.1,22.8-3.6,1.8,3,.1.2,2.9,4.8Z"/><path class="cls-17" d="M288.3,212.7a25.39,25.39,0,0,1-16.7,6.3,26.19,26.19,0,0,1-9.7-1.9c-.5-3.4-1.9-5.7-5-6.5.7-.7,1.3-1.3,2.1-2l.1-.1.1-.1.2-.2.4-.3.9-.1,22.8-3.6h0a13.42,13.42,0,0,1,3.4,1.6,10,10,0,0,1,1.1,1h0v.2c.1.9.1,1.8.2,2.7s.1,1.6.1,2.4Z"/><path class="cls-18" d="M285.8,194.2l-27.5,1.1a6.58,6.58,0,0,0-6.3,6.8h0a6.58,6.58,0,0,0,6.8,6.3l27.5-1.1a6.58,6.58,0,0,0,6.3-6.8h0A6.58,6.58,0,0,0,285.8,194.2Z"/><path class="cls-18" d="M284.4,182l-26.8,1.1a6.92,6.92,0,0,0-6.6,7.2v.2a6.92,6.92,0,0,0,7.2,6.6L285,196a6.92,6.92,0,0,0,6.6-7.2v-.2A6.92,6.92,0,0,0,284.4,182Z"/><path class="cls-16" d="M286.3,207.1a6.49,6.49,0,0,0,5.3-10.1,6.19,6.19,0,0,0-2.9-2.4,7.55,7.55,0,0,0,2.1-2.6,7.11,7.11,0,0,0,.7-3.2v-.2a7.6,7.6,0,0,0-.6-2.6,6.91,6.91,0,0,0-1.6-2.2,7.89,7.89,0,0,0-2.3-1.4,6.35,6.35,0,0,0-2.7-.4l-23.9,1a13.39,13.39,0,0,0-.3,11.7,4.19,4.19,0,0,1,.4,1.5,4.53,4.53,0,0,1-.3,1.6,11.94,11.94,0,0,0,.7,10.5Z"/><path class="cls-19" d="M267,194.7c.6-.4.6-1.4.1-2.3s-1.5-1.2-2.1-.8-.6,1.4-.1,2.3A1.57,1.57,0,0,0,267,194.7Z"/><path class="cls-19" d="M278.9,192.9a1.48,1.48,0,0,0-.7-2c-.6-.2-1.4.4-1.6,1.4a1.48,1.48,0,0,0,.7,2A1.66,1.66,0,0,0,278.9,192.9Z"/><path class="cls-20" d="M269.6,197.8c1.7,2.8,4.1,3.5,5.8-.2v-.2l-.1-.1h-.1l-5.4.2h-.1a.1.1,0,0,0-.1.1v.2Z"/><path class="cls-21" d="M273,197.4l-3.2.1h-.1a.1.1,0,0,0-.1.1v.2c1.4,2.4,3.4,3.3,5,1.1A3.86,3.86,0,0,0,273,197.4Z"/><g class="cls-3"><path class="cls-22" d="M252.33,163.85H251V160c0-.44,0-.82,0-1.13h0c-.06.13-.16.33-.3.58l-2.54,4.39h-1.39v-7h1.3v3.87c0,.47,0,.79,0,1h0s.12-.22.31-.56l2.44-4.26h1.48Z"/><path class="cls-22" d="M256.47,160H255v3.82h-1.35v-5h2.86Z"/><path class="cls-22" d="M258.58,163.27h0v2.87h-1.35v-7.28h1.35v.75h0a1.55,1.55,0,0,1,1.41-.87,1.51,1.51,0,0,1,1.31.66,3.13,3.13,0,0,1,.47,1.81,3.29,3.29,0,0,1-.55,2,1.67,1.67,0,0,1-1.44.76A1.31,1.31,0,0,1,258.58,163.27Zm0-2.05v.4a1.35,1.35,0,0,0,.24.84.74.74,0,0,0,.63.33.79.79,0,0,0,.71-.41,2.15,2.15,0,0,0,.26-1.15c0-.87-.3-1.31-.9-1.31a.81.81,0,0,0-.68.36A1.56,1.56,0,0,0,258.54,161.22Z"/><path class="cls-22" d="M266.21,163.85h-1.28v-.72h0a1.4,1.4,0,0,1-1.31.84,1.28,1.28,0,0,1-1-.41,1.62,1.62,0,0,1-.37-1.1,1.56,1.56,0,0,1,1.52-1.68l1.19-.18q0-.81-.78-.81a2.39,2.39,0,0,0-1.49.53v-1.16a2.76,2.76,0,0,1,.77-.29,3.36,3.36,0,0,1,.89-.13c1.25,0,1.88.71,1.88,2.13Zm-1.27-2v-.33l-.8.11c-.44.07-.66.29-.66.68a.59.59,0,0,0,.16.43.58.58,0,0,0,.43.17.77.77,0,0,0,.63-.3A1.17,1.17,0,0,0,264.94,161.82Z"/><path class="cls-22" d="M271.22,161.79h-2.86a1,1,0,0,0,1.2,1.09,2.13,2.13,0,0,0,1.27-.39v1.11a3,3,0,0,1-1.58.37,2.06,2.06,0,0,1-1.65-.67,2.76,2.76,0,0,1-.58-1.87,2.91,2.91,0,0,1,.63-2,2,2,0,0,1,1.56-.72,1.77,1.77,0,0,1,1.48.65,2.69,2.69,0,0,1,.53,1.75Zm-1.26-.94c0-.72-.25-1.07-.76-1.07a.69.69,0,0,0-.56.3,1.47,1.47,0,0,0-.29.77Z"/><path class="cls-22" d="M275.3,160h-1.17v3.82h-1.36V160h-1.18v-1.17h3.71Z"/><path class="cls-22" d="M278.43,163.85v-5h2.45c1,0,1.57.41,1.57,1.22a1.12,1.12,0,0,1-.89,1.12,1.22,1.22,0,0,1,.76.39,1.11,1.11,0,0,1,.28.76,1.46,1.46,0,0,1-.43,1.09,1.61,1.61,0,0,1-1.16.41Zm1.35-4v1h.67c.41,0,.61-.19.61-.55s-.19-.5-.58-.5Zm0,1.95v1.14h.78c.43,0,.65-.2.65-.6s-.22-.54-.67-.54Z"/><path class="cls-22" d="M290.29,163.85h-1.23v-3.27a6,6,0,0,1-.36.72l-1.49,2.55h-1.28v-5h1.24V162a4.94,4.94,0,0,1,.3-.61l1.49-2.55h1.33Z"/><path class="cls-22" d="M294.3,160h-1.51v3.82h-1.36v-5h2.87Z"/><path class="cls-22" d="M296.4,163.27h0v2.87H295v-7.28h1.35v.75h0a1.57,1.57,0,0,1,1.41-.87,1.52,1.52,0,0,1,1.32.66,3.13,3.13,0,0,1,.46,1.81,3.36,3.36,0,0,1-.54,2,1.67,1.67,0,0,1-1.44.76A1.32,1.32,0,0,1,296.4,163.27Zm0-2.05v.4a1.35,1.35,0,0,0,.24.84.74.74,0,0,0,.63.33.81.81,0,0,0,.72-.41,2.16,2.16,0,0,0,.25-1.15c0-.87-.29-1.31-.89-1.31a.8.8,0,0,0-.68.36A1.5,1.5,0,0,0,296.36,161.22Z"/><path class="cls-22" d="M304.65,158.86l-1.79,5.39c-.42,1.29-1.07,1.94-1.93,1.94a2.08,2.08,0,0,1-.81-.13v-1.22a1,1,0,0,0,.59.18.74.74,0,0,0,.72-.56l.24-.62-1.79-5h1.5l.82,3a5.09,5.09,0,0,1,.12.67h0a4.14,4.14,0,0,1,.14-.66l.82-3Z"/></g><g class="cls-3"><path class="cls-22" d="M312.29,175.67v2.41h-1.52v-7h2.38c1.7,0,2.54.75,2.54,2.23A2.15,2.15,0,0,1,315,175a2.82,2.82,0,0,1-1.95.65Zm0-3.37v2.18h.6c.8,0,1.21-.37,1.21-1.1s-.41-1.08-1.21-1.08Z"/><path class="cls-22" d="M320.57,176h-3.14c.05.73.49,1.09,1.32,1.09a2.52,2.52,0,0,0,1.4-.39v1.11a3.52,3.52,0,0,1-1.73.37,2.41,2.41,0,0,1-1.81-.67,2.59,2.59,0,0,1-.65-1.87,2.71,2.71,0,0,1,.7-2,2.27,2.27,0,0,1,1.71-.72,2.05,2.05,0,0,1,1.63.65,2.54,2.54,0,0,1,.57,1.75Zm-1.38-.94c0-.72-.27-1.07-.83-1.07a.79.79,0,0,0-.62.3,1.49,1.49,0,0,0-.32.77Z"/><path class="cls-22" d="M323,177.5h0v2.87h-1.49v-7.28h1.49v.75h0a1.85,1.85,0,0,1,3-.21,3,3,0,0,1,.5,1.81,3.11,3.11,0,0,1-.59,2,1.9,1.9,0,0,1-1.58.76A1.48,1.48,0,0,1,323,177.5Zm0-2.05v.4a1.25,1.25,0,0,0,.27.84.83.83,0,0,0,.69.33.88.88,0,0,0,.78-.41,2,2,0,0,0,.28-1.15c0-.88-.33-1.31-1-1.31a.94.94,0,0,0-.75.35A1.49,1.49,0,0,0,322.91,175.45Z"/><path class="cls-22" d="M328.92,177.5h0v2.87h-1.48v-7.28h1.48v.75h0a1.74,1.74,0,0,1,1.55-.87,1.71,1.71,0,0,1,1.44.66,2.92,2.92,0,0,1,.51,1.81,3.17,3.17,0,0,1-.59,2,1.91,1.91,0,0,1-1.58.76A1.5,1.5,0,0,1,328.92,177.5Zm0-2.05v.4a1.3,1.3,0,0,0,.26.84.85.85,0,0,0,.69.33.91.91,0,0,0,.79-.41,2.05,2.05,0,0,0,.28-1.15c0-.88-.33-1.31-1-1.31a.92.92,0,0,0-.74.35A1.44,1.44,0,0,0,328.88,175.45Z"/><path class="cls-22" d="M337.7,176h-3.13c.05.73.49,1.09,1.32,1.09a2.49,2.49,0,0,0,1.39-.39v1.11a3.5,3.5,0,0,1-1.73.37,2.41,2.41,0,0,1-1.81-.67,2.59,2.59,0,0,1-.64-1.87,2.75,2.75,0,0,1,.69-2,2.29,2.29,0,0,1,1.71-.72,2,2,0,0,1,1.63.65,2.54,2.54,0,0,1,.57,1.75Zm-1.37-.94c0-.72-.28-1.07-.84-1.07a.8.8,0,0,0-.62.3,1.4,1.4,0,0,0-.31.77Z"/></g><g class="cls-3"><path class="cls-22" d="M312.18,187.64c0,1.57-.54,2.35-1.61,2.35a1.61,1.61,0,0,1-.49-.07v-.43a1.56,1.56,0,0,0,.5.09,1,1,0,0,0,.89-.48,3,3,0,0,0,.27-1.47v-4.25h.44Z"/><path class="cls-22" d="M316.71,189.88V189h0a1.54,1.54,0,0,1-1.47,1q-1.62,0-1.62-2.07v-2.68H314v2.57a2.42,2.42,0,0,0,.3,1.37,1.1,1.1,0,0,0,1,.43,1.29,1.29,0,0,0,1-.48,1.93,1.93,0,0,0,.39-1.27v-2.62h.41v4.64Z"/><path class="cls-22" d="M318.35,189.67v-.5a1.61,1.61,0,0,0,.56.32,1.71,1.71,0,0,0,.57.12c.72,0,1.08-.3,1.08-.89a.69.69,0,0,0-.24-.53,3.11,3.11,0,0,0-.77-.45,2.6,2.6,0,0,1-.92-.6,1.16,1.16,0,0,1-.26-.75,1.13,1.13,0,0,1,.42-.92,1.64,1.64,0,0,1,1-.35,1.89,1.89,0,0,1,1,.25v.47a1.84,1.84,0,0,0-1.05-.34,1.09,1.09,0,0,0-.73.24.89.89,0,0,0-.1,1.16,2.52,2.52,0,0,0,.77.47,3.66,3.66,0,0,1,1,.6,1,1,0,0,1,.27.75,1.18,1.18,0,0,1-.41.91,1.65,1.65,0,0,1-1.13.36A1.84,1.84,0,0,1,318.35,189.67Z"/><path class="cls-22" d="M323.94,189.81a1.35,1.35,0,0,1-.6.16c-.68,0-1-.41-1-1.24v-3.11h-.82v-.38h.82V184l.21-.07.2-.07v1.35h1.21v.38h-1.21v3.06a1.28,1.28,0,0,0,.15.7.58.58,0,0,0,.51.21,1.06,1.06,0,0,0,.55-.17Z"/><path class="cls-22" d="M330.3,189.67a2.23,2.23,0,0,1-1.21.32,1.91,1.91,0,0,1-1.5-.65,2.48,2.48,0,0,1-.57-1.7,2.57,2.57,0,0,1,.64-1.81,2.14,2.14,0,0,1,1.65-.71,2.36,2.36,0,0,1,1,.22v.47a2,2,0,0,0-1.07-.31,1.65,1.65,0,0,0-1.31.59,2.28,2.28,0,0,0-.5,1.52,2.23,2.23,0,0,0,.46,1.45,1.5,1.5,0,0,0,1.21.55,1.92,1.92,0,0,0,1.19-.37Z"/><path class="cls-22" d="M334.51,189.88v-2.79a1.92,1.92,0,0,0-.3-1.2,1.07,1.07,0,0,0-.92-.39,1.4,1.4,0,0,0-1,.47,1.86,1.86,0,0,0-.45,1.34v2.57h-.41V183h.41v3.06h0a1.71,1.71,0,0,1,1.57-.95,1.35,1.35,0,0,1,1.13.49,2.15,2.15,0,0,1,.39,1.39v2.88Z"/><path class="cls-22" d="M336.49,184.07a.33.33,0,0,1-.23-.1.36.36,0,0,1-.11-.26.3.3,0,0,1,.11-.24.35.35,0,0,1,.23-.09.34.34,0,0,1,.24.09.3.3,0,0,1,.11.24.33.33,0,0,1-.1.25A.34.34,0,0,1,336.49,184.07Zm-.2,5.81v-4.64h.41v4.64Z"/><path class="cls-22" d="M338.16,189.88V183h.42v6.87Z"/><path class="cls-22" d="M340.24,184.07a.37.37,0,0,1-.24-.1.35.35,0,0,1-.1-.26.28.28,0,0,1,.11-.24.32.32,0,0,1,.23-.09.36.36,0,0,1,.24.09.3.3,0,0,1,.11.24.34.34,0,0,1-.11.25A.32.32,0,0,1,340.24,184.07Zm-.2,5.81v-4.64h.41v4.64Z"/><path class="cls-22" d="M345,189.88v-2.7c0-1.12-.4-1.68-1.19-1.68a1.38,1.38,0,0,0-1.08.49,1.78,1.78,0,0,0-.43,1.22v2.67h-.41v-4.64h.41v.84h0a1.64,1.64,0,0,1,1.56-1,1.36,1.36,0,0,1,1.13.5,2.23,2.23,0,0,1,.4,1.43v2.83Z"/></g><g class="cls-3"><path class="cls-22" d="M308.24,246.43c0,1.55-.71,2.33-2.12,2.33s-2-.75-2-2.24v-3.44h.41v3.38c0,1.3.57,1.95,1.69,1.95s1.64-.63,1.64-1.89v-3.44h.41Z"/><path class="cls-22" d="M309.4,248.49v-.43a1.56,1.56,0,0,0,.53.27,1.63,1.63,0,0,0,.53.1c.67,0,1-.25,1-.76a.55.55,0,0,0-.22-.45,2.43,2.43,0,0,0-.72-.39,2.61,2.61,0,0,1-.86-.52.91.91,0,0,1-.24-.64.94.94,0,0,1,.39-.79,1.62,1.62,0,0,1,1-.3,2,2,0,0,1,.94.21v.4a1.9,1.9,0,0,0-1-.28,1.07,1.07,0,0,0-.69.2.64.64,0,0,0-.25.53.63.63,0,0,0,.16.46,2.15,2.15,0,0,0,.72.41,3.16,3.16,0,0,1,.91.52.83.83,0,0,1,.25.64.94.94,0,0,1-.38.78,1.58,1.58,0,0,1-1.05.31A1.84,1.84,0,0,1,309.4,248.49Z"/><path class="cls-22" d="M313,246.68a1.9,1.9,0,0,0,.4,1.29,1.43,1.43,0,0,0,1.12.46,2.34,2.34,0,0,0,1.4-.49v.38a2.63,2.63,0,0,1-1.48.44,1.71,1.71,0,0,1-1.33-.55,2.22,2.22,0,0,1-.51-1.56,2.11,2.11,0,0,1,.53-1.47,1.75,1.75,0,0,1,1.38-.6,1.47,1.47,0,0,1,1.22.52,2.16,2.16,0,0,1,.43,1.43v.15Zm2.76-.32a1.69,1.69,0,0,0-.36-1.07,1.12,1.12,0,0,0-.91-.38,1.37,1.37,0,0,0-1,.37,1.76,1.76,0,0,0-.49,1.08Z"/><path class="cls-22" d="M319.26,245.05a.73.73,0,0,0-.45-.13,1,1,0,0,0-.84.49,2.34,2.34,0,0,0-.35,1.38v1.87h-.37v-4h.37v.88h0a1.49,1.49,0,0,1,.46-.71,1.16,1.16,0,0,1,.74-.25,1.09,1.09,0,0,1,.42.07Z"/><path class="cls-22" d="M322.6,243.67a.33.33,0,0,1-.22-.08.27.27,0,0,1-.1-.22.24.24,0,0,1,.1-.21.34.34,0,0,1,.44,0,.24.24,0,0,1,.1.21.29.29,0,0,1-.09.21A.33.33,0,0,1,322.6,243.67Zm-.19,5v-4h.38v4Z"/><path class="cls-22" d="M327.06,248.66v-2.32c0-1-.37-1.43-1.11-1.43a1.34,1.34,0,0,0-1,.42,1.48,1.48,0,0,0-.4,1v2.29h-.38v-4h.38v.72h0a1.56,1.56,0,0,1,1.46-.82,1.3,1.3,0,0,1,1.06.43,1.83,1.83,0,0,1,.37,1.23v2.42Z"/><path class="cls-22" d="M330.6,243.14a.76.76,0,0,0-.47-.11c-.52,0-.78.32-.78,1v.66h1.13V245h-1.13v3.66H329V245h-.77v-.32H329V244a1.26,1.26,0,0,1,.34-.95,1.32,1.32,0,0,1,1.3-.26Z"/><path class="cls-22" d="M332.8,248.76a1.93,1.93,0,0,1-1.47-.57,2.1,2.1,0,0,1,1.52-3.61,1.89,1.89,0,0,1,1.44.56,2.43,2.43,0,0,1,0,3A1.91,1.91,0,0,1,332.8,248.76Zm0-3.85a1.56,1.56,0,0,0-1.2.47,1.85,1.85,0,0,0-.45,1.32,1.81,1.81,0,0,0,.44,1.26,1.57,1.57,0,0,0,1.2.47A1.52,1.52,0,0,0,334,248a2.28,2.28,0,0,0,0-2.61A1.53,1.53,0,0,0,332.83,244.91Z"/></g><g class="cls-3"><path class="cls-22" d="M362.51,248.66v-4c0-.1,0-.37,0-.82h0c-.09.21-.16.37-.22.49l-2.13,4.29h-.13l-2.14-4.27a2.88,2.88,0,0,1-.19-.53h0q0,.38,0,.75v4h-.42v-5.58h.39l2.23,4.5a.51.51,0,0,1,0,.1l.06.14c0,.06.06.14.09.22h0l.05-.12.14-.37,2.2-4.47h.36v5.58Z"/><path class="cls-22" d="M367.18,248.66v-.72h0a1.47,1.47,0,0,1-1.38.82c-1,0-1.51-.59-1.51-1.78v-2.3h.39v2.21a2,2,0,0,0,.28,1.18,1.08,1.08,0,0,0,.9.36,1.25,1.25,0,0,0,1-.4,1.62,1.62,0,0,0,.37-1.09v-2.26h.38v4Z"/><path class="cls-22" d="M370.62,248.61a1.38,1.38,0,0,1-.57.13c-.63,0-.94-.35-.94-1.06V245h-.77v-.33h.77v-1l.19-.06.19-.06v1.16h1.13V245h-1.13v2.63a1,1,0,0,0,.14.59.53.53,0,0,0,.47.19,1.12,1.12,0,0,0,.52-.15Z"/><path class="cls-22" d="M374.28,248.66v-.72h0a1.47,1.47,0,0,1-1.38.82c-1,0-1.51-.59-1.51-1.78v-2.3h.38v2.21a2,2,0,0,0,.29,1.18,1.08,1.08,0,0,0,.9.36,1.25,1.25,0,0,0,1-.4,1.61,1.61,0,0,0,.36-1.09v-2.26h.39v4Z"/><path class="cls-22" d="M378.59,248.66v-.79h0a1.54,1.54,0,0,1-.59.65,1.63,1.63,0,0,1-.87.24,1.34,1.34,0,0,1-1-.32,1,1,0,0,1-.36-.8c0-.7.5-1.12,1.48-1.27l1.32-.18c0-.85-.35-1.28-1-1.28a2.16,2.16,0,0,0-1.37.53V245a2.19,2.19,0,0,1,.65-.31,2.66,2.66,0,0,1,.76-.12,1.35,1.35,0,0,1,1,.38,1.58,1.58,0,0,1,.36,1.11v2.59Zm-1.18-2a2.21,2.21,0,0,0-.94.29.75.75,0,0,0-.27.65.73.73,0,0,0,.25.58,1,1,0,0,0,.7.23,1.36,1.36,0,0,0,1-.42,1.54,1.54,0,0,0,.41-1.1v-.39Z"/><path class="cls-22" d="M380.26,248.66v-5.9h.38v5.9Z"/><path class="cls-22" d="M384.25,248.47V248a2.53,2.53,0,0,0,1.3.38,1.76,1.76,0,0,0,1.06-.27.9.9,0,0,0,.36-.76.94.94,0,0,0-.24-.68,4.46,4.46,0,0,0-1.06-.7,3.65,3.65,0,0,1-1.15-.83,1.25,1.25,0,0,1-.24-.76,1.27,1.27,0,0,1,.49-1,2,2,0,0,1,1.32-.41,3.26,3.26,0,0,1,1.06.17v.4a2.8,2.8,0,0,0-1.12-.22,1.43,1.43,0,0,0-1,.29.89.89,0,0,0-.36.73,1,1,0,0,0,.24.68,5,5,0,0,0,1.06.69,3.51,3.51,0,0,1,1.11.79,1.19,1.19,0,0,1,.28.79,1.31,1.31,0,0,1-.48,1.05,2,2,0,0,1-1.35.4,3.35,3.35,0,0,1-.71-.09A2.7,2.7,0,0,1,384.25,248.47Z"/><path class="cls-22" d="M388.69,246.69a1.89,1.89,0,0,0,.4,1.28,1.43,1.43,0,0,0,1.12.46,2.34,2.34,0,0,0,1.4-.49v.38a2.63,2.63,0,0,1-1.48.44,1.71,1.71,0,0,1-1.33-.55,2.22,2.22,0,0,1-.51-1.56,2.16,2.16,0,0,1,.53-1.47,1.75,1.75,0,0,1,1.38-.6,1.5,1.5,0,0,1,1.23.52,2.23,2.23,0,0,1,.42,1.43v.16Zm2.76-.33a1.69,1.69,0,0,0-.36-1.07,1.1,1.1,0,0,0-.9-.38,1.39,1.39,0,0,0-1,.37,1.75,1.75,0,0,0-.48,1.08Z"/><path class="cls-22" d="M394.93,245.05a.86.86,0,0,0-.46-.13,1,1,0,0,0-.84.49,2.34,2.34,0,0,0-.34,1.38v1.87h-.38v-4h.38v.88h0a1.49,1.49,0,0,1,.46-.71,1.16,1.16,0,0,1,.74-.25,1.18,1.18,0,0,1,.43.07Z"/><path class="cls-22" d="M397.65,248.66h-.35l-1.65-4h.43l1.27,3.17a2,2,0,0,1,.13.42h0a1.47,1.47,0,0,1,.12-.4l1.31-3.19h.42Z"/><path class="cls-22" d="M400.21,246.69a1.89,1.89,0,0,0,.41,1.28,1.4,1.4,0,0,0,1.12.46,2.38,2.38,0,0,0,1.4-.49v.38a2.65,2.65,0,0,1-1.48.44,1.74,1.74,0,0,1-1.34-.55,2.22,2.22,0,0,1-.51-1.56,2.16,2.16,0,0,1,.53-1.47,1.78,1.78,0,0,1,1.39-.6,1.47,1.47,0,0,1,1.22.52,2.24,2.24,0,0,1,.43,1.43v.16Zm2.76-.33a1.63,1.63,0,0,0-.35-1.07,1.12,1.12,0,0,0-.91-.38,1.37,1.37,0,0,0-1,.37,1.71,1.71,0,0,0-.49,1.08Z"/><path class="cls-22" d="M406.45,245.05a.85.85,0,0,0-.45-.13,1,1,0,0,0-.85.49,2.42,2.42,0,0,0-.34,1.38v1.87h-.37v-4h.37v.88h0a1.49,1.49,0,0,1,.46-.71,1.24,1.24,0,0,1,1.16-.18Z"/><path class="cls-22" d="M407.12,248.49v-.43a1.6,1.6,0,0,0,.52.27,1.73,1.73,0,0,0,.54.1c.67,0,1-.25,1-.76a.55.55,0,0,0-.22-.45,2.57,2.57,0,0,0-.72-.39,2.61,2.61,0,0,1-.86-.52.92.92,0,0,1-.25-.64,1,1,0,0,1,.4-.79,1.61,1.61,0,0,1,1-.3,2,2,0,0,1,.95.21v.4a1.91,1.91,0,0,0-1-.28,1.12,1.12,0,0,0-.68.2.67.67,0,0,0-.26.53.64.64,0,0,0,.17.46,2.15,2.15,0,0,0,.72.41,3.16,3.16,0,0,1,.91.52.83.83,0,0,1,.25.64.94.94,0,0,1-.38.78,1.58,1.58,0,0,1-1.05.31A1.84,1.84,0,0,1,407.12,248.49Z"/></g><g class="cls-3"><path class="cls-22" d="M438,248.66v-4c0-.1,0-.37.05-.82h0c-.09.21-.16.37-.22.48l-2.12,4.3h-.14l-2.13-4.27a3.12,3.12,0,0,1-.2-.53h0c0,.25,0,.5,0,.74v4.06h-.41v-5.58h.38l2.23,4.5a.46.46,0,0,1,.05.1.5.5,0,0,0,.05.13l.09.23h0l0-.12s0-.14.14-.37l2.2-4.47h.37v5.58Z"/><path class="cls-22" d="M442.7,248.66v-.72h0a1.45,1.45,0,0,1-1.37.82c-1,0-1.52-.59-1.52-1.78v-2.3h.39v2.21a2,2,0,0,0,.29,1.18,1.07,1.07,0,0,0,.89.36,1.23,1.23,0,0,0,1-.41,1.53,1.53,0,0,0,.37-1.09v-2.25h.38v4Z"/><path class="cls-22" d="M446.14,248.61a1.37,1.37,0,0,1-.56.13c-.63,0-.95-.35-.95-1.06V245h-.77v-.32h.77v-1l.19-.06.19-.06v1.16h1.13V245H445v2.63a1,1,0,0,0,.14.6.59.59,0,0,0,.48.19,1.06,1.06,0,0,0,.51-.15Z"/><path class="cls-22" d="M449.81,248.66v-.72h0a1.47,1.47,0,0,1-1.38.82c-1,0-1.51-.59-1.51-1.78v-2.3h.39v2.21a2,2,0,0,0,.28,1.18,1.08,1.08,0,0,0,.9.36,1.23,1.23,0,0,0,1-.41,1.58,1.58,0,0,0,.37-1.09v-2.25h.38v4Z"/><path class="cls-22" d="M454.11,248.66v-.8h0a1.66,1.66,0,0,1-.6.66,1.62,1.62,0,0,1-.86.24,1.42,1.42,0,0,1-1-.32,1.05,1.05,0,0,1-.35-.81c0-.69.49-1.11,1.48-1.26l1.31-.18c0-.86-.34-1.28-1-1.28a2.18,2.18,0,0,0-1.37.52V245a2.4,2.4,0,0,1,.64-.3,2.73,2.73,0,0,1,.77-.12,1.34,1.34,0,0,1,1,.38,1.5,1.5,0,0,1,.37,1.11v2.59Zm-1.17-2a2.08,2.08,0,0,0-.95.29.75.75,0,0,0-.27.65.78.78,0,0,0,.25.58,1,1,0,0,0,.71.23,1.36,1.36,0,0,0,1-.42,1.5,1.5,0,0,0,.41-1.1v-.39Z"/><path class="cls-22" d="M455.78,248.66v-5.9h.39v5.9Z"/><path class="cls-22" d="M460.37,243.43v2.28h2.21v.35h-2.21v2.6H460v-5.58h2.79v.35Z"/><path class="cls-22" d="M465.86,245.05a.77.77,0,0,0-.45-.13,1,1,0,0,0-.85.49,2.34,2.34,0,0,0-.34,1.38v1.87h-.38v-4h.38v.88h0a1.42,1.42,0,0,1,.46-.71,1.13,1.13,0,0,1,.73-.25,1.18,1.18,0,0,1,.43.07Z"/><path class="cls-22" d="M466.85,243.67a.37.37,0,0,1-.22-.08.29.29,0,0,1-.09-.22.26.26,0,0,1,.09-.21.37.37,0,0,1,.22-.08.32.32,0,0,1,.23.08.27.27,0,0,1,0,.42A.32.32,0,0,1,466.85,243.67Zm-.18,5v-4h.38v4Z"/><path class="cls-22" d="M468.51,246.68a1.85,1.85,0,0,0,.41,1.29,1.39,1.39,0,0,0,1.11.46,2.34,2.34,0,0,0,1.4-.49v.38a2.63,2.63,0,0,1-1.48.44,1.71,1.71,0,0,1-1.33-.55,2.22,2.22,0,0,1-.51-1.56,2.12,2.12,0,0,1,.53-1.47,1.76,1.76,0,0,1,1.38-.6,1.5,1.5,0,0,1,1.23.52,2.2,2.2,0,0,1,.42,1.42v.16Zm2.76-.32a1.75,1.75,0,0,0-.35-1.07,1.13,1.13,0,0,0-.91-.38,1.39,1.39,0,0,0-1,.37,1.75,1.75,0,0,0-.48,1.08Z"/><path class="cls-22" d="M475.63,248.66v-2.32c0-1-.37-1.43-1.11-1.43a1.32,1.32,0,0,0-1,.42,1.48,1.48,0,0,0-.4,1v2.29h-.38v-4h.38v.72h0a1.56,1.56,0,0,1,1.46-.82,1.32,1.32,0,0,1,1.06.43,1.86,1.86,0,0,1,.37,1.23v2.42Z"/><path class="cls-22" d="M480.33,248.66v-.72h0a1.56,1.56,0,0,1-.62.6,1.87,1.87,0,0,1-.92.22,1.67,1.67,0,0,1-1.29-.54,2.1,2.1,0,0,1-.5-1.48,2.19,2.19,0,0,1,.55-1.56,1.81,1.81,0,0,1,1.41-.6,1.44,1.44,0,0,1,1.37.73h0v-2.55h.39v5.9Zm0-2.42a1.32,1.32,0,0,0-.37-1,1.34,1.34,0,0,0-1-.38,1.43,1.43,0,0,0-1.11.48,1.9,1.9,0,0,0-.44,1.32,1.83,1.83,0,0,0,.4,1.27,1.28,1.28,0,0,0,1,.45,1.47,1.47,0,0,0,1.13-.42,1.42,1.42,0,0,0,.4-1Z"/><path class="cls-22" d="M481.86,248.49v-.43a1.88,1.88,0,0,0,.53.27,1.68,1.68,0,0,0,.53.1c.67,0,1-.25,1-.76a.58.58,0,0,0-.22-.46,2.89,2.89,0,0,0-.72-.38,2.51,2.51,0,0,1-.86-.52.88.88,0,0,1-.25-.65.92.92,0,0,1,.4-.78,1.59,1.59,0,0,1,1-.3,2,2,0,0,1,.94.21v.4a1.85,1.85,0,0,0-1-.28,1,1,0,0,0-.68.2.65.65,0,0,0-.26.53.69.69,0,0,0,.16.46,2.15,2.15,0,0,0,.72.41,3.24,3.24,0,0,1,.92.52.83.83,0,0,1,.25.64,1,1,0,0,1-.38.78,1.63,1.63,0,0,1-1.06.31A1.86,1.86,0,0,1,481.86,248.49Z"/></g><path class="cls-22" d="M336.3,258.9H302.5V258a.43.43,0,0,1,.4-.4h32.9a.43.43,0,0,1,.4.4v.9Z"/><g class="cls-3"><path class="cls-22" d="M317.5,107.93h-1.93v-3.42H312v3.42h-1.92V99.55H312v3.34h3.53V99.55h1.93Z"/><path class="cls-22" d="M324.75,105.46h-4c.06.87.62,1.3,1.67,1.3a3.34,3.34,0,0,0,1.77-.46v1.33a4.78,4.78,0,0,1-2.2.44,3.16,3.16,0,0,1-2.29-.8,3,3,0,0,1-.81-2.24,3.15,3.15,0,0,1,.88-2.36,3,3,0,0,1,2.16-.87,2.74,2.74,0,0,1,2.07.77,3,3,0,0,1,.73,2.11ZM323,104.33c0-.86-.35-1.29-1.06-1.29a1,1,0,0,0-.78.37,1.65,1.65,0,0,0-.4.92Z"/><path class="cls-22" d="M328.77,108.07a3.31,3.31,0,0,1-2.4-.84,3.4,3.4,0,0,1,0-4.59,3.43,3.43,0,0,1,2.44-.84,3.26,3.26,0,0,1,2.38.84,2.91,2.91,0,0,1,.87,2.21,3.15,3.15,0,0,1-.89,2.36A3.39,3.39,0,0,1,328.77,108.07Zm.05-4.86a1.27,1.27,0,0,0-1,.45,1.92,1.92,0,0,0-.37,1.27c0,1.15.47,1.73,1.42,1.73s1.35-.59,1.35-1.77S329.72,103.21,328.82,103.21Z"/><path class="cls-22" d="M339.19,107.93H337.3v-4.68h-2.1v4.68h-1.88v-6h5.87Z"/><path class="cls-22" d="M343.68,108.07a3.31,3.31,0,0,1-2.4-.84,3.42,3.42,0,0,1,0-4.59,3.47,3.47,0,0,1,2.45-.84,3.26,3.26,0,0,1,2.38.84,2.91,2.91,0,0,1,.87,2.21,3.12,3.12,0,0,1-.9,2.36A3.35,3.35,0,0,1,343.68,108.07Zm.05-4.86a1.27,1.27,0,0,0-1,.45,1.92,1.92,0,0,0-.37,1.27c0,1.15.47,1.73,1.42,1.73s1.35-.59,1.35-1.77S344.63,103.21,343.73,103.21Z"/><path class="cls-22" d="M347.91,107.77v-1.34a4.33,4.33,0,0,0,1.76.4q1.26,0,1.26-.69c0-.47-.46-.7-1.38-.7h-.85V104.3h.86c.79,0,1.19-.23,1.19-.68s-.36-.6-1.06-.6a3.89,3.89,0,0,0-1.6.35V102.1a7.29,7.29,0,0,1,1.94-.3c1.77,0,2.66.54,2.66,1.61,0,.75-.47,1.21-1.42,1.39v0a1.94,1.94,0,0,1,1.17.44,1.24,1.24,0,0,1,.43,1c0,1.2-1,1.8-3,1.8A6.47,6.47,0,0,1,347.91,107.77Z"/><path class="cls-22" d="M360,107.93h-1.88v-2.51H356v2.51h-1.88v-6H356v2.22h2.11v-2.22H360Z"/><path class="cls-22" d="M366.61,107.93h-1.78v-.86h0a2,2,0,0,1-1.82,1,1.93,1.93,0,0,1-1.4-.49,1.79,1.79,0,0,1-.5-1.32q0-1.74,2.1-2l1.65-.22c0-.65-.36-1-1.08-1a3.76,3.76,0,0,0-2.07.64V102.3a4.78,4.78,0,0,1,1.07-.35,5.87,5.87,0,0,1,1.24-.15,2.28,2.28,0,0,1,2.61,2.55Zm-1.77-2.43v-.41l-1.11.14c-.61.08-.91.35-.91.81a.66.66,0,0,0,.22.52.85.85,0,0,0,.61.2,1.12,1.12,0,0,0,.86-.36A1.28,1.28,0,0,0,364.84,105.5Z"/><path class="cls-22" d="M374,107.93h-1.88v-2.51H370v2.51H368.1v-6H370v2.22h2.11v-2.22H374Z"/><path class="cls-22" d="M375.55,107.93v-6h1.88V104H379a2.39,2.39,0,0,1,1.61.5,1.71,1.71,0,0,1,.58,1.39,1.92,1.92,0,0,1-.57,1.46,2.22,2.22,0,0,1-1.58.55Zm1.88-2.73v1.55h.92c.63,0,.95-.27.95-.8s-.31-.75-.93-.75Zm6.47,2.73H382v-6h1.88Z"/><path class="cls-22" d="M391.55,107.93h-1.71V104a7.61,7.61,0,0,1-.5.85l-2.07,3.07h-1.78v-6h1.72v3.79a5.73,5.73,0,0,1,.41-.73l2.07-3.06h1.86Zm-.44-8.84a2.13,2.13,0,0,1-.82,1.47,3.11,3.11,0,0,1-3.53,0,1.9,1.9,0,0,1-.76-1.47h1.37a1,1,0,0,0,.37.74,1.24,1.24,0,0,0,.82.28,1.16,1.16,0,0,0,.8-.29,1.05,1.05,0,0,0,.38-.73Z"/><path class="cls-22" d="M403.65,107.93h-2.28l-1.47-2.73a2.75,2.75,0,0,1-.17-.56h0a5.89,5.89,0,0,1-.2.58L398,107.93h-2.29l2.72-4.19L396,99.55h2.34l1.22,2.51a4.11,4.11,0,0,1,.26.71h0c.05-.17.14-.41.27-.73l1.36-2.49h2.14L401,103.7Z"/><path class="cls-22" d="M407.39,108.07a3.31,3.31,0,0,1-2.4-.84,3.4,3.4,0,0,1,0-4.59,3.43,3.43,0,0,1,2.44-.84,3.26,3.26,0,0,1,2.38.84,2.91,2.91,0,0,1,.87,2.21,3.15,3.15,0,0,1-.89,2.36A3.39,3.39,0,0,1,407.39,108.07Zm.05-4.86a1.27,1.27,0,0,0-1,.45,1.92,1.92,0,0,0-.37,1.27c0,1.15.47,1.73,1.42,1.73s1.35-.59,1.35-1.77S408.34,103.21,407.44,103.21Z"/><path class="cls-22" d="M419.82,107.93h-1.75v-4.66a9.57,9.57,0,0,1-.32,1.1l-1.18,3.56h-1.66l-1.18-3.56a8,8,0,0,1-.32-1.09v4.65h-1.47v-6h2.47l1.16,3.41a6.9,6.9,0,0,1,.29,1.07,7.87,7.87,0,0,1,.31-1l1.14-3.43h2.51Z"/><path class="cls-22" d="M426.76,107.93h-1.87v-2.24h-.43c-.33,0-.62.28-.89.86l-.65,1.38h-2.1l.89-1.71a1.86,1.86,0,0,1,1.13-1c-1-.17-1.52-.69-1.52-1.55,0-1.17.87-1.75,2.61-1.75h2.83Zm-1.87-3.34v-1.47h-.71c-.65,0-1,.24-1,.73s.32.74,1,.74Z"/><path class="cls-22" d="M434.41,107.93h-2.25L430.24,105h0v2.93h-1.88v-6h1.88v2.81h0l1.87-2.81h2.23l-2.24,2.85Z"/></g><g class="cls-3"><path class="cls-23" d="M441,104.33h-1.26l-.35,1.57h1.31l-.08.35h-1.3l-.4,1.81h-.37l.4-1.81h-1.24l-.39,1.81H437l.39-1.81H436l.09-.35h1.29l.35-1.57h-1.35l.09-.36h1.33l.41-1.85h.37l-.41,1.85h1.24l.41-1.85h.37l-.41,1.85h1.26Zm-2.86,0-.35,1.57H439l.35-1.57Z"/><path class="cls-23" d="M443.92,102v6.64h-.42v-6a3.18,3.18,0,0,1-.73.51,5.56,5.56,0,0,1-.89.39v-.38c.19-.07.37-.14.54-.22a4.45,4.45,0,0,0,.48-.26l.44-.32c.14-.12.29-.24.43-.38Z"/><path class="cls-23" d="M445.3,108.61v-.3a2.92,2.92,0,0,1,.05-.54,1.83,1.83,0,0,1,.16-.45,1.42,1.42,0,0,1,.26-.38,3.05,3.05,0,0,1,.36-.36c.13-.12.29-.24.46-.37l.57-.41c.2-.14.39-.28.56-.42a3.27,3.27,0,0,0,.46-.45,2.13,2.13,0,0,0,.3-.53,1.69,1.69,0,0,0,.11-.66,1.35,1.35,0,0,0-.36-1,1.41,1.41,0,0,0-1-.35,2,2,0,0,0-.86.19,3.17,3.17,0,0,0-.8.53v-.49a3.28,3.28,0,0,1,.82-.45,2.53,2.53,0,0,1,.91-.16,2.36,2.36,0,0,1,.72.11,1.55,1.55,0,0,1,.55.34,1.4,1.4,0,0,1,.35.53,1.65,1.65,0,0,1,.13.68,2.16,2.16,0,0,1-.49,1.43,3.27,3.27,0,0,1-.53.52c-.2.16-.41.32-.64.47s-.55.4-.75.56a3.41,3.41,0,0,0-.51.47,2,2,0,0,0-.28.48,1.91,1.91,0,0,0-.08.57v.06h3.29v.38Z"/><path class="cls-23" d="M450.25,108.38v-.47a2.91,2.91,0,0,0,1.43.44,1.87,1.87,0,0,0,1.25-.4,1.35,1.35,0,0,0,.45-1,1.29,1.29,0,0,0-.52-1.1,2.59,2.59,0,0,0-1.48-.37h-.5v-.38h.45a2.06,2.06,0,0,0,1.34-.37,1.24,1.24,0,0,0,.47-1,1.21,1.21,0,0,0-.34-.92,1.33,1.33,0,0,0-1-.33,2.46,2.46,0,0,0-1.3.42v-.44a3.14,3.14,0,0,1,1.36-.36,1.83,1.83,0,0,1,1.25.41,1.45,1.45,0,0,1,.45,1.11,1.59,1.59,0,0,1-1.28,1.68h0a1.7,1.7,0,0,1,1.1.51,1.52,1.52,0,0,1,.42,1.1,1.75,1.75,0,0,1-.6,1.38,2.32,2.32,0,0,1-1.55.52A3.1,3.1,0,0,1,450.25,108.38Z"/><path class="cls-23" d="M458.39,102.12v4.42h1v.37h-1v1.7H458v-1.7h-3.16v-.4c.3-.33.6-.69.9-1.07s.6-.76.88-1.14.53-.77.76-1.15a11.83,11.83,0,0,0,.59-1Zm-3.09,4.42H458v-3.68c-.23.38-.46.75-.7,1.1s-.48.7-.72,1-.46.61-.67.88Z"/></g><path class="cls-22" d="M280.8,115.6s-1.1-1.4-2.1-2.6a10.17,10.17,0,0,0,5.7-3.8,15.81,15.81,0,0,1-3.6,1.9,21.84,21.84,0,0,1-4.6,1.4,22.53,22.53,0,0,1-8.2,0,23.94,23.94,0,0,1-4.7-1.4A15.77,15.77,0,0,1,261,110c-.1-.1-.2-.1-.3-.2a.1.1,0,0,1-.1-.1,9.24,9.24,0,0,1-.9-.5,9.78,9.78,0,0,0,5.5,3.7c-.9,1.2-2.1,2.6-2.1,2.6-7-.2-9.7-4.8-9.7-4.8A42.38,42.38,0,0,1,258,92.2a15.77,15.77,0,0,1,8.9-3.3l.3.4c-5.7,1.6-8.3,4.1-8.3,4.1a18.73,18.73,0,0,1,1.9-.9,23.82,23.82,0,0,1,7.2-2c.2,0,.3-.1.5-.1a27.41,27.41,0,0,1,6.4-.1,24.87,24.87,0,0,1,9.5,3s-2.5-2.4-7.9-4l.4-.5a15.77,15.77,0,0,1,8.9,3.3,42.38,42.38,0,0,1,4.6,18.5c.1.2-2.6,4.7-9.6,5Z"/><path class="cls-7" d="M266.1,100.8a3.36,3.36,0,0,0-3.2,3.5,3.43,3.43,0,0,0,3.2,3.5,3.51,3.51,0,0,0,0-7"/><path class="cls-7" d="M277.6,100.8a3.36,3.36,0,0,0-3.2,3.5,3.43,3.43,0,0,0,3.2,3.5,3.36,3.36,0,0,0,3.2-3.5,3.3,3.3,0,0,0-3.2-3.5"/><g class="cls-3"><path class="cls-22" d="M219.06,43.53h-2V45h1.86v1.11H217V48.5h-1.29V42.41h3.31Z"/><path class="cls-22" d="M223.77,48.5h-1.26v-.67h0a1.4,1.4,0,0,1-1.25.77c-1,0-1.42-.61-1.42-1.83V44.15h1.26v2.5q0,.93.69.93a.67.67,0,0,0,.54-.26,1,1,0,0,0,.2-.68V44.15h1.26Z"/><path class="cls-22" d="M226.1,48.5h-1.26V42.06h1.26Z"/><path class="cls-22" d="M228.43,48.5h-1.26V42.06h1.26Z"/><path class="cls-22" d="M233.17,46.4v2.1h-1.29V42.41h2c1.45,0,2.17.65,2.17,1.94a1.92,1.92,0,0,1-.62,1.48,2.37,2.37,0,0,1-1.66.57Zm0-2.94v1.9h.51c.69,0,1-.32,1-1s-.34-.94-1-.94Z"/><path class="cls-22" d="M239.46,45.36a1,1,0,0,0-.53-.13.75.75,0,0,0-.65.32,1.47,1.47,0,0,0-.23.87V48.5h-1.26V44.15h1.26V45h0a1.11,1.11,0,0,1,1.08-.89.83.83,0,0,1,.31,0Z"/><path class="cls-22" d="M242,48.6a2.12,2.12,0,0,1-1.61-.61A2.29,2.29,0,0,1,242,44a2.12,2.12,0,0,1,1.6.61,2.24,2.24,0,0,1,.58,1.61,2.34,2.34,0,0,1-.59,1.71A2.16,2.16,0,0,1,242,48.6Zm0-3.53a.83.83,0,0,0-.7.33,1.53,1.53,0,0,0-.24.92c0,.84.31,1.26.95,1.26s.91-.43.91-1.29S242.61,45.07,242,45.07Z"/><path class="cls-22" d="M247.57,43.09a1.16,1.16,0,0,0-.46-.1c-.41,0-.61.23-.61.7v.46h.93v1h-.93V48.5h-1.26V45.14h-.69v-1h.69v-.54a1.64,1.64,0,0,1,.45-1.2,1.7,1.7,0,0,1,1.24-.45,2.27,2.27,0,0,1,.64.08Z"/><path class="cls-22" d="M248.68,43.46a.72.72,0,0,1-.52-.2.65.65,0,0,1-.21-.49.64.64,0,0,1,.21-.5.75.75,0,0,1,.52-.19.78.78,0,0,1,.53.19.67.67,0,0,1,.2.5.69.69,0,0,1-.2.5A.73.73,0,0,1,248.68,43.46Zm.63,5H248V44.15h1.27Z"/><path class="cls-22" d="M251.63,48.5h-1.26V42.06h1.26Z"/><path class="cls-22" d="M256.38,46.7h-2.67c0,.64.41.95,1.12.95a2.08,2.08,0,0,0,1.19-.34v1a2.93,2.93,0,0,1-1.48.32A2,2,0,0,1,253,48a2.31,2.31,0,0,1-.55-1.63,2.38,2.38,0,0,1,.6-1.71A1.88,1.88,0,0,1,254.5,44a1.74,1.74,0,0,1,1.39.57,2.23,2.23,0,0,1,.49,1.53Zm-1.17-.82q0-.93-.72-.93a.68.68,0,0,0-.52.26,1.26,1.26,0,0,0-.27.67Z"/></g><g class="cls-3"><path class="cls-22" d="M283.13,46.6c0,1.82-.8,2.74-2.4,2.74s-2.34-.89-2.34-2.68V43.14h1.3v3.54q0,1.47,1.08,1.47c.72,0,1.07-.47,1.07-1.42V43.14h1.29Z"/><path class="cls-22" d="M284,49.12V48a2.94,2.94,0,0,0,.62.3,2.15,2.15,0,0,0,.59.1,1.28,1.28,0,0,0,.53-.1.32.32,0,0,0,.19-.3.29.29,0,0,0-.09-.21.61.61,0,0,0-.22-.15,2.09,2.09,0,0,0-.3-.11l-.32-.12a2.15,2.15,0,0,1-.43-.21,1.13,1.13,0,0,1-.31-.26.88.88,0,0,1-.19-.34,1.33,1.33,0,0,1-.07-.47,1.21,1.21,0,0,1,.15-.62,1.3,1.3,0,0,1,.4-.44,1.81,1.81,0,0,1,.57-.24,3,3,0,0,1,.67-.08,3.39,3.39,0,0,1,.55,0,5.66,5.66,0,0,1,.56.13v1a2,2,0,0,0-.52-.22,2,2,0,0,0-.54-.08.85.85,0,0,0-.23,0,.53.53,0,0,0-.19.06.41.41,0,0,0-.14.12.27.27,0,0,0,0,.16.29.29,0,0,0,.07.2.58.58,0,0,0,.19.15l.25.11.29.1a3.79,3.79,0,0,1,.45.2,1.33,1.33,0,0,1,.35.26,1.18,1.18,0,0,1,.23.35,1.56,1.56,0,0,1-.08,1.13,1.3,1.3,0,0,1-.42.45,2,2,0,0,1-.61.25,3.29,3.29,0,0,1-.71.08A3.39,3.39,0,0,1,284,49.12Z"/><path class="cls-22" d="M291.54,47.44h-2.67c0,.63.42,1,1.12,1a2.13,2.13,0,0,0,1.19-.34v1a3,3,0,0,1-1.47.32,2,2,0,0,1-1.54-.58,2.28,2.28,0,0,1-.55-1.63,2.44,2.44,0,0,1,.59-1.72,1.93,1.93,0,0,1,1.46-.63,1.74,1.74,0,0,1,1.38.56,2.26,2.26,0,0,1,.49,1.54Zm-1.17-.82c0-.62-.24-.94-.71-.94a.68.68,0,0,0-.53.27,1.23,1.23,0,0,0-.27.67Z"/><path class="cls-22" d="M295,46.1a1.06,1.06,0,0,0-.54-.14.76.76,0,0,0-.64.32,1.53,1.53,0,0,0-.23.88v2.07h-1.27V44.89h1.27v.8h0a1.1,1.1,0,0,1,1.08-.88.89.89,0,0,1,.32,0Z"/><path class="cls-22" d="M299.23,47.14v2.09h-1.29V43.14h2c1.45,0,2.17.65,2.17,1.94a1.93,1.93,0,0,1-.62,1.49,2.37,2.37,0,0,1-1.66.57Zm0-2.94v1.9h.51c.69,0,1-.32,1-1s-.34-.94-1-.94Z"/><path class="cls-22" d="M304.56,49.34a2.1,2.1,0,0,1-1.61-.61,2.62,2.62,0,0,1,0-3.34,2.19,2.19,0,0,1,1.64-.61,2.08,2.08,0,0,1,1.6.61,2.21,2.21,0,0,1,.58,1.61,2.38,2.38,0,0,1-.6,1.71A2.12,2.12,0,0,1,304.56,49.34Zm0-3.53a.85.85,0,0,0-.7.32,1.56,1.56,0,0,0-.25.93c0,.83.32,1.25,1,1.25s.9-.43.9-1.28S305.2,45.81,304.59,45.81Z"/><path class="cls-22" d="M308.89,48.73h0v2.5h-1.27V44.89h1.27v.65h0a1.46,1.46,0,0,1,1.32-.76,1.44,1.44,0,0,1,1.23.58,2.58,2.58,0,0,1,.43,1.58,2.83,2.83,0,0,1-.5,1.74,1.62,1.62,0,0,1-1.35.66A1.26,1.26,0,0,1,308.89,48.73Zm0-1.79v.35a1.16,1.16,0,0,0,.22.74.72.72,0,0,0,.59.28.77.77,0,0,0,.67-.35,1.8,1.8,0,0,0,.24-1q0-1.14-.84-1.14a.78.78,0,0,0-.64.31A1.31,1.31,0,0,0,308.86,46.94Z"/><path class="cls-22" d="M314.65,49.34a2.14,2.14,0,0,1-1.62-.61,2.29,2.29,0,0,1-.58-1.65,2.26,2.26,0,0,1,.61-1.69,2.19,2.19,0,0,1,1.64-.61,2.08,2.08,0,0,1,1.6.61,2.21,2.21,0,0,1,.58,1.61,2.38,2.38,0,0,1-.6,1.71A2.14,2.14,0,0,1,314.65,49.34Zm0-3.53a.85.85,0,0,0-.7.32,1.56,1.56,0,0,0-.25.93c0,.83.32,1.25.95,1.25s.91-.43.91-1.28S315.29,45.81,314.68,45.81Z"/><path class="cls-22" d="M321.59,49.23h-1.26v-.66h0a1.42,1.42,0,0,1-1.25.77c-.95,0-1.42-.61-1.42-1.83V44.89h1.26v2.5c0,.61.23.92.69.92a.66.66,0,0,0,.54-.25,1.11,1.11,0,0,0,.2-.69V44.89h1.26Z"/><path class="cls-22" d="M325.13,49.18a1.66,1.66,0,0,1-.84.16c-.89,0-1.34-.49-1.34-1.47v-2h-.66v-1H323V44l1.26-.38v1.32h.92v1h-.92v1.76c0,.46.17.68.51.68a.83.83,0,0,0,.41-.12Z"/></g><path class="cls-24" d="M253.1,58.6H219.3v-.9a.43.43,0,0,1,.4-.4h32.9a.43.43,0,0,1,.4.4v.9Z"/><path class="cls-25" d="M136.3,264.5H58.4a1.79,1.79,0,0,1-1.8-1.8v-7.5a1.79,1.79,0,0,1,1.8-1.8h77.9a1.79,1.79,0,0,1,1.8,1.8v7.5A1.73,1.73,0,0,1,136.3,264.5Z"/><path class="cls-26" d="M174.3,285.4H56.2a1.79,1.79,0,0,1-1.8-1.8V273.5a1.79,1.79,0,0,1,1.8-1.8H174.3a1.79,1.79,0,0,1,1.8,1.8v10.1A1.79,1.79,0,0,1,174.3,285.4Z"/><path class="cls-25" d="M188.2,377.9H48.7a1.79,1.79,0,0,1-1.8-1.8V334.3a1.79,1.79,0,0,1,1.8-1.8H188.2a1.79,1.79,0,0,1,1.8,1.8v41.8A1.68,1.68,0,0,1,188.2,377.9Z"/></g></svg>