<svg xmlns="http://www.w3.org/2000/svg" xmlns:xlink="http://www.w3.org/1999/xlink" viewBox="0 0 750 500"><defs><style>.cls-1{fill:none;opacity:0.19;}.cls-2{isolation:isolate;}.cls-3{clip-path:url(#clip-path);}.cls-4{fill:url(#linear-gradient);}.cls-5{fill:url(#linear-gradient-2);}.cls-6{fill:url(#linear-gradient-3);}.cls-7{fill:url(#linear-gradient-4);}.cls-8{fill:url(#linear-gradient-5);}.cls-9{fill:url(#linear-gradient-6);}.cls-10{fill:url(#linear-gradient-7);}.cls-11,.cls-12{mix-blend-mode:color-dodge;}.cls-11{fill:url(#Безымянный_градиент_5);}.cls-12{fill:url(#Безымянный_градиент_6);}</style><clipPath id="clip-path"><rect class="cls-1" width="750" height="500"/></clipPath><linearGradient id="linear-gradient" x1="168.15" y1="338.46" x2="601.15" y2="120.42" gradientTransform="translate(-40.89 36.13) rotate(-7.91)" gradientUnits="userSpaceOnUse"><stop offset="0" stop-color="#000030"/><stop offset="0.05" stop-color="#00003b"/><stop offset="0.26" stop-color="#006"/><stop offset="0.47" stop-color="#000089"/><stop offset="0.67" stop-color="#0000a1"/><stop offset="0.85" stop-color="#0000b0"/><stop offset="1" stop-color="#0000b5"/></linearGradient><linearGradient id="linear-gradient-2" x1="102.82" y1="407.45" x2="457.27" y2="53" gradientTransform="translate(-40.89 36.13) rotate(-7.91)" gradientUnits="userSpaceOnUse"><stop offset="0" stop-color="#000052"/><stop offset="0.08" stop-color="#000064"/><stop offset="0.29" stop-color="#00008f"/><stop offset="0.49" stop-color="#0000b2"/><stop offset="0.68" stop-color="#0000ca"/><stop offset="0.86" stop-color="#0000d9"/><stop offset="1" stop-color="#0000de"/></linearGradient><linearGradient id="linear-gradient-3" x1="185.85" y1="393.28" x2="7.7" y2="215.13" gradientTransform="translate(-40.89 36.13) rotate(-7.91)" gradientUnits="userSpaceOnUse"><stop offset="0" stop-color="#000030"/><stop offset="0.14" stop-color="#00003d"/><stop offset="0.46" stop-color="#005"/><stop offset="0.76" stop-color="#000064"/><stop offset="1" stop-color="#000069"/></linearGradient><linearGradient id="linear-gradient-4" x1="255.88" y1="296.72" x2="151.28" y2="192.12" xlink:href="#linear-gradient-2"/><linearGradient id="linear-gradient-5" x1="115.48" y1="233.46" x2="292.48" y2="410.46" gradientTransform="translate(-40.89 36.13) rotate(-7.91)" gradientUnits="userSpaceOnUse"><stop offset="0" stop-color="#db00c5"/><stop offset="0.12" stop-color="#b000b3"/><stop offset="0.29" stop-color="#7b009d"/><stop offset="0.45" stop-color="#4f008a"/><stop offset="0.61" stop-color="#2d007c"/><stop offset="0.75" stop-color="#140071"/><stop offset="0.89" stop-color="#05006b"/><stop offset="1" stop-color="#000069"/></linearGradient><linearGradient id="linear-gradient-6" x1="415.85" y1="416" x2="65.05" y2="65.2" xlink:href="#linear-gradient-3"/><linearGradient id="linear-gradient-7" x1="422.27" y1="384.03" x2="99.75" y2="61.51" xlink:href="#linear-gradient-5"/><radialGradient id="Безымянный_градиент_5" cx="220.56" cy="1409.22" r="45.06" gradientTransform="matrix(1.93, -0.76, 0.03, 0.07, -150.32, 337.34)" gradientUnits="userSpaceOnUse"><stop offset="0" stop-color="#5cd9ff"/><stop offset="0.02" stop-color="#58cff3" stop-opacity="0.95"/><stop offset="0.09" stop-color="#46a4c1" stop-opacity="0.76"/><stop offset="0.17" stop-color="#357d93" stop-opacity="0.58"/><stop offset="0.25" stop-color="#275b6b" stop-opacity="0.42"/><stop offset="0.34" stop-color="#1b3f4a" stop-opacity="0.29"/><stop offset="0.44" stop-color="#11282f" stop-opacity="0.18"/><stop offset="0.54" stop-color="#09161a" stop-opacity="0.1"/><stop offset="0.65" stop-color="#040a0b" stop-opacity="0.04"/><stop offset="0.79" stop-color="#010203" stop-opacity="0.01"/><stop offset="1" stop-opacity="0"/></radialGradient><radialGradient id="Безымянный_градиент_6" cx="188.6" cy="1145.26" r="45.08" gradientTransform="matrix(1.54, -1.39, 0.05, 0.06, -84.75, 458.47)" xlink:href="#Безымянный_градиент_5"/></defs><g class="cls-2"><g id="OBJECTS"><g class="cls-3"><path class="cls-4" d="M141.15,314.42l79.39-87,33.84,9.25,82.89-39.42,89.35,29.45-16.18,28.6-7.9,21.25-68.32,32.74-15.5,22.31s-5,8.45-11.11,9.29-28.69,5.54-28.69,5.54l-40.77,41.31-36.33,17.45L167,377.5l-95.4,16.34,38.7-67.38Z"/><polygon class="cls-5" points="201.82 405.21 166.97 377.5 71.57 393.84 203.77 316.19 201.82 405.21"/><polygon class="cls-6" points="203.77 316.19 110.27 326.46 71.57 393.84 203.77 316.19"/><polygon class="cls-7" points="203.77 316.19 220.54 227.44 254.38 236.69 203.77 316.19"/><polygon class="cls-8" points="203.77 316.19 278.92 346.44 238.15 387.76 203.77 316.19"/><polygon class="cls-9" points="203.77 316.19 334.22 309.31 402.54 276.57 203.77 316.19"/><polygon class="cls-10" points="203.77 316.19 337.26 197.27 426.62 226.72 203.77 316.19"/><path class="cls-11" d="M401,237.64c.7,1.78-37.59,18.5-85.53,37.34s-87.38,32.66-88.08,30.87S265,287.34,313,268.5,400.34,235.85,401,237.64Z"/><path class="cls-12" d="M333.45,200.1c1.29,1.43-28.67,30.56-66.91,65.07S196.26,326.51,195,325.08s28.66-30.56,66.9-65.07S332.16,198.68,333.45,200.1Z"/></g></g></g></svg>